<svg width="802" height="130" viewBox="0 0 802 130" fill="none" xmlns="http://www.w3.org/2000/svg">
<rect width="802" height="130" fill="#4CA3E6"/>
<path d="M208.216 61.5795H203.966C203.845 60.8826 203.621 60.2652 203.295 59.7273C202.97 59.1818 202.564 58.7197 202.08 58.3409C201.595 57.9621 201.042 57.678 200.42 57.4886C199.807 57.2917 199.144 57.1932 198.432 57.1932C197.167 57.1932 196.045 57.5114 195.068 58.1477C194.091 58.7765 193.326 59.7008 192.773 60.9205C192.22 62.1326 191.943 63.6136 191.943 65.3636C191.943 67.1439 192.22 68.6439 192.773 69.8636C193.333 71.0758 194.098 71.9924 195.068 72.6136C196.045 73.2273 197.163 73.5341 198.42 73.5341C199.117 73.5341 199.769 73.4432 200.375 73.2614C200.989 73.072 201.538 72.7955 202.023 72.4318C202.515 72.0682 202.928 71.6212 203.261 71.0909C203.602 70.5606 203.837 69.9545 203.966 69.2727L208.216 69.2955C208.057 70.4015 207.712 71.4394 207.182 72.4091C206.659 73.3788 205.973 74.2348 205.125 74.9773C204.277 75.7121 203.284 76.2879 202.148 76.7045C201.011 77.1136 199.75 77.3182 198.364 77.3182C196.318 77.3182 194.492 76.8447 192.886 75.8977C191.28 74.9508 190.015 73.5833 189.091 71.7955C188.167 70.0076 187.705 67.8636 187.705 65.3636C187.705 62.8561 188.17 60.7121 189.102 58.9318C190.034 57.1439 191.303 55.7765 192.909 54.8295C194.515 53.8826 196.333 53.4091 198.364 53.4091C199.659 53.4091 200.864 53.5909 201.977 53.9545C203.091 54.3182 204.083 54.8523 204.955 55.5568C205.826 56.2538 206.542 57.1098 207.102 58.125C207.67 59.1326 208.042 60.2841 208.216 61.5795ZM216.009 53.7273V77H211.895V53.7273H216.009ZM225.261 77.3523C224.155 77.3523 223.159 77.1553 222.273 76.7614C221.394 76.3598 220.697 75.7689 220.182 74.9886C219.674 74.2083 219.42 73.2462 219.42 72.1023C219.42 71.1174 219.602 70.303 219.966 69.6591C220.33 69.0152 220.826 68.5 221.455 68.1136C222.083 67.7273 222.792 67.4356 223.58 67.2386C224.375 67.0341 225.197 66.8864 226.045 66.7955C227.068 66.6894 227.898 66.5947 228.534 66.5114C229.17 66.4205 229.633 66.2841 229.92 66.1023C230.216 65.9129 230.364 65.6212 230.364 65.2273V65.1591C230.364 64.303 230.11 63.6402 229.602 63.1705C229.095 62.7008 228.364 62.4659 227.409 62.4659C226.402 62.4659 225.602 62.6856 225.011 63.125C224.428 63.5644 224.034 64.0833 223.83 64.6818L219.989 64.1364C220.292 63.0758 220.792 62.1894 221.489 61.4773C222.186 60.7576 223.038 60.2197 224.045 59.8636C225.053 59.5 226.167 59.3182 227.386 59.3182C228.227 59.3182 229.064 59.4167 229.898 59.6136C230.731 59.8106 231.492 60.1364 232.182 60.5909C232.871 61.0379 233.424 61.6477 233.841 62.4205C234.265 63.1932 234.477 64.1591 234.477 65.3182V77H230.523V74.6023H230.386C230.136 75.0871 229.784 75.5417 229.33 75.9659C228.883 76.3826 228.318 76.7197 227.636 76.9773C226.962 77.2273 226.17 77.3523 225.261 77.3523ZM226.33 74.3295C227.155 74.3295 227.871 74.1667 228.477 73.8409C229.083 73.5076 229.549 73.0682 229.875 72.5227C230.208 71.9773 230.375 71.3826 230.375 70.7386V68.6818C230.246 68.7879 230.027 68.8864 229.716 68.9773C229.413 69.0682 229.072 69.1477 228.693 69.2159C228.314 69.2841 227.939 69.3447 227.568 69.3977C227.197 69.4508 226.875 69.4962 226.602 69.5341C225.989 69.6174 225.439 69.7538 224.955 69.9432C224.47 70.1326 224.087 70.3977 223.807 70.7386C223.527 71.072 223.386 71.5038 223.386 72.0341C223.386 72.7917 223.663 73.3636 224.216 73.75C224.769 74.1364 225.473 74.3295 226.33 74.3295ZM253.58 59.5455L247.364 77H242.818L236.602 59.5455H240.989L245 72.5114H245.182L249.205 59.5455H253.58ZM260.949 77.3523C259.843 77.3523 258.847 77.1553 257.96 76.7614C257.081 76.3598 256.384 75.7689 255.869 74.9886C255.362 74.2083 255.108 73.2462 255.108 72.1023C255.108 71.1174 255.29 70.303 255.653 69.6591C256.017 69.0152 256.513 68.5 257.142 68.1136C257.771 67.7273 258.479 67.4356 259.267 67.2386C260.063 67.0341 260.884 66.8864 261.733 66.7955C262.756 66.6894 263.585 66.5947 264.222 66.5114C264.858 66.4205 265.32 66.2841 265.608 66.1023C265.903 65.9129 266.051 65.6212 266.051 65.2273V65.1591C266.051 64.303 265.797 63.6402 265.29 63.1705C264.782 62.7008 264.051 62.4659 263.097 62.4659C262.089 62.4659 261.29 62.6856 260.699 63.125C260.116 63.5644 259.722 64.0833 259.517 64.6818L255.676 64.1364C255.979 63.0758 256.479 62.1894 257.176 61.4773C257.873 60.7576 258.725 60.2197 259.733 59.8636C260.741 59.5 261.854 59.3182 263.074 59.3182C263.915 59.3182 264.752 59.4167 265.585 59.6136C266.419 59.8106 267.18 60.1364 267.869 60.5909C268.559 61.0379 269.112 61.6477 269.528 62.4205C269.953 63.1932 270.165 64.1591 270.165 65.3182V77H266.21V74.6023H266.074C265.824 75.0871 265.472 75.5417 265.017 75.9659C264.57 76.3826 264.006 76.7197 263.324 76.9773C262.65 77.2273 261.858 77.3523 260.949 77.3523ZM262.017 74.3295C262.843 74.3295 263.559 74.1667 264.165 73.8409C264.771 73.5076 265.237 73.0682 265.562 72.5227C265.896 71.9773 266.062 71.3826 266.062 70.7386V68.6818C265.934 68.7879 265.714 68.8864 265.403 68.9773C265.1 69.0682 264.759 69.1477 264.381 69.2159C264.002 69.2841 263.627 69.3447 263.256 69.3977C262.884 69.4508 262.563 69.4962 262.29 69.5341C261.676 69.6174 261.127 69.7538 260.642 69.9432C260.157 70.1326 259.775 70.3977 259.494 70.7386C259.214 71.072 259.074 71.5038 259.074 72.0341C259.074 72.7917 259.35 73.3636 259.903 73.75C260.456 74.1364 261.161 74.3295 262.017 74.3295ZM274.301 77V59.5455H278.29V62.4545H278.472C278.79 61.447 279.335 60.6705 280.108 60.125C280.888 59.572 281.778 59.2955 282.778 59.2955C283.006 59.2955 283.259 59.3068 283.54 59.3295C283.828 59.3447 284.066 59.3712 284.256 59.4091V63.1932C284.081 63.1326 283.805 63.0795 283.426 63.0341C283.055 62.9811 282.695 62.9545 282.347 62.9545C281.597 62.9545 280.922 63.1174 280.324 63.4432C279.733 63.7614 279.267 64.2045 278.926 64.7727C278.585 65.3409 278.415 65.9962 278.415 66.7386V77H274.301ZM292.747 77.3068C291.376 77.3068 290.149 76.9545 289.065 76.25C287.982 75.5455 287.126 74.5227 286.497 73.1818C285.868 71.8409 285.554 70.2121 285.554 68.2955C285.554 66.3561 285.872 64.7197 286.509 63.3864C287.152 62.0455 288.02 61.0341 289.111 60.3523C290.202 59.6629 291.418 59.3182 292.759 59.3182C293.781 59.3182 294.622 59.4924 295.281 59.8409C295.94 60.1818 296.463 60.5947 296.849 61.0795C297.236 61.5568 297.535 62.0076 297.747 62.4318H297.918V53.7273H302.043V77H297.997V74.25H297.747C297.535 74.6742 297.228 75.125 296.827 75.6023C296.425 76.072 295.895 76.4735 295.236 76.8068C294.577 77.1402 293.747 77.3068 292.747 77.3068ZM293.895 73.9318C294.766 73.9318 295.509 73.697 296.122 73.2273C296.736 72.75 297.202 72.0871 297.52 71.2386C297.838 70.3902 297.997 69.4015 297.997 68.2727C297.997 67.1439 297.838 66.1629 297.52 65.3295C297.209 64.4962 296.747 63.8485 296.134 63.3864C295.527 62.9242 294.781 62.6932 293.895 62.6932C292.978 62.6932 292.213 62.9318 291.599 63.4091C290.986 63.8864 290.524 64.5455 290.213 65.3864C289.902 66.2273 289.747 67.1894 289.747 68.2727C289.747 69.3636 289.902 70.3371 290.213 71.1932C290.531 72.0417 290.997 72.7121 291.611 73.2045C292.232 73.6894 292.993 73.9318 293.895 73.9318ZM314.153 77.3409C312.403 77.3409 310.892 76.9773 309.619 76.25C308.354 75.5152 307.381 74.4773 306.699 73.1364C306.017 71.7879 305.676 70.2008 305.676 68.375C305.676 66.5795 306.017 65.0038 306.699 63.6477C307.388 62.2841 308.35 61.2235 309.585 60.4659C310.82 59.7008 312.271 59.3182 313.938 59.3182C315.013 59.3182 316.028 59.4924 316.983 59.8409C317.945 60.1818 318.794 60.7121 319.528 61.4318C320.271 62.1515 320.854 63.0682 321.278 64.1818C321.703 65.2879 321.915 66.6061 321.915 68.1364V69.3977H307.608V66.625H317.972C317.964 65.8371 317.794 65.1364 317.46 64.5227C317.127 63.9015 316.661 63.4129 316.062 63.0568C315.472 62.7008 314.782 62.5227 313.994 62.5227C313.153 62.5227 312.415 62.7273 311.778 63.1364C311.142 63.5379 310.646 64.0682 310.29 64.7273C309.941 65.3788 309.763 66.0947 309.756 66.875V69.2955C309.756 70.3106 309.941 71.1818 310.312 71.9091C310.684 72.6288 311.203 73.1818 311.869 73.5682C312.536 73.947 313.316 74.1364 314.21 74.1364C314.809 74.1364 315.35 74.053 315.835 73.8864C316.32 73.7121 316.741 73.4583 317.097 73.125C317.453 72.7917 317.722 72.3788 317.903 71.8864L321.744 72.3182C321.502 73.3333 321.04 74.2197 320.358 74.9773C319.684 75.7273 318.82 76.3106 317.767 76.7273C316.714 77.1364 315.509 77.3409 314.153 77.3409ZM325.395 77V59.5455H329.384V62.4545H329.565C329.884 61.447 330.429 60.6705 331.202 60.125C331.982 59.572 332.872 59.2955 333.872 59.2955C334.099 59.2955 334.353 59.3068 334.634 59.3295C334.921 59.3447 335.16 59.3712 335.349 59.4091V63.1932C335.175 63.1326 334.899 63.0795 334.52 63.0341C334.149 62.9811 333.789 62.9545 333.44 62.9545C332.69 62.9545 332.016 63.1174 331.418 63.4432C330.827 63.7614 330.361 64.2045 330.02 64.7727C329.679 65.3409 329.509 65.9962 329.509 66.7386V77H325.395ZM353.747 77.3409C351.997 77.3409 350.486 76.9773 349.213 76.25C347.948 75.5152 346.974 74.4773 346.293 73.1364C345.611 71.7879 345.27 70.2008 345.27 68.375C345.27 66.5795 345.611 65.0038 346.293 63.6477C346.982 62.2841 347.944 61.2235 349.179 60.4659C350.414 59.7008 351.865 59.3182 353.531 59.3182C354.607 59.3182 355.622 59.4924 356.577 59.8409C357.539 60.1818 358.387 60.7121 359.122 61.4318C359.865 62.1515 360.448 63.0682 360.872 64.1818C361.296 65.2879 361.509 66.6061 361.509 68.1364V69.3977H347.202V66.625H357.565C357.558 65.8371 357.387 65.1364 357.054 64.5227C356.721 63.9015 356.255 63.4129 355.656 63.0568C355.065 62.7008 354.376 62.5227 353.588 62.5227C352.747 62.5227 352.009 62.7273 351.372 63.1364C350.736 63.5379 350.24 64.0682 349.884 64.7273C349.535 65.3788 349.357 66.0947 349.349 66.875V69.2955C349.349 70.3106 349.535 71.1818 349.906 71.9091C350.277 72.6288 350.796 73.1818 351.463 73.5682C352.13 73.947 352.91 74.1364 353.804 74.1364C354.402 74.1364 354.944 74.053 355.429 73.8864C355.914 73.7121 356.334 73.4583 356.69 73.125C357.046 72.7917 357.315 72.3788 357.497 71.8864L361.338 72.3182C361.096 73.3333 360.634 74.2197 359.952 74.9773C359.277 75.7273 358.414 76.3106 357.361 76.7273C356.308 77.1364 355.103 77.3409 353.747 77.3409ZM369.102 66.7727V77H364.989V59.5455H368.92V62.5114H369.125C369.527 61.5341 370.167 60.7576 371.045 60.1818C371.932 59.6061 373.027 59.3182 374.33 59.3182C375.534 59.3182 376.583 59.5758 377.477 60.0909C378.379 60.6061 379.076 61.3523 379.568 62.3295C380.068 63.3068 380.314 64.4924 380.307 65.8864V77H376.193V66.5227C376.193 65.3561 375.89 64.4432 375.284 63.7841C374.686 63.125 373.856 62.7955 372.795 62.7955C372.076 62.7955 371.436 62.9545 370.875 63.2727C370.322 63.5833 369.886 64.0341 369.568 64.625C369.258 65.2159 369.102 65.9318 369.102 66.7727ZM396.54 53.7273V77H392.426V53.7273H396.54ZM400.77 77V59.5455H404.884V77H400.77ZM402.838 57.0682C402.187 57.0682 401.626 56.8523 401.156 56.4205C400.687 55.9811 400.452 55.4545 400.452 54.8409C400.452 54.2197 400.687 53.6932 401.156 53.2614C401.626 52.822 402.187 52.6023 402.838 52.6023C403.497 52.6023 404.058 52.822 404.52 53.2614C404.99 53.6932 405.224 54.2197 405.224 54.8409C405.224 55.4545 404.99 55.9811 404.52 56.4205C404.058 56.8523 403.497 57.0682 402.838 57.0682ZM416.705 83.9091C415.227 83.9091 413.958 83.7083 412.898 83.3068C411.837 82.9129 410.985 82.3826 410.341 81.7159C409.697 81.0492 409.25 80.3106 409 79.5L412.705 78.6023C412.871 78.9432 413.114 79.2803 413.432 79.6136C413.75 79.9545 414.178 80.2348 414.716 80.4545C415.261 80.6818 415.947 80.7955 416.773 80.7955C417.939 80.7955 418.905 80.5114 419.67 79.9432C420.436 79.3826 420.818 78.4583 420.818 77.1705V73.8636H420.614C420.402 74.2879 420.091 74.7235 419.682 75.1705C419.28 75.6174 418.746 75.9924 418.08 76.2955C417.42 76.5985 416.591 76.75 415.591 76.75C414.25 76.75 413.034 76.4356 411.943 75.8068C410.86 75.1705 409.996 74.2235 409.352 72.9659C408.716 71.7008 408.398 70.1174 408.398 68.2159C408.398 66.2992 408.716 64.6818 409.352 63.3636C409.996 62.0379 410.864 61.0341 411.955 60.3523C413.045 59.6629 414.261 59.3182 415.602 59.3182C416.625 59.3182 417.466 59.4924 418.125 59.8409C418.792 60.1818 419.322 60.5947 419.716 61.0795C420.11 61.5568 420.409 62.0076 420.614 62.4318H420.841V59.5455H424.898V77.2841C424.898 78.7765 424.542 80.0114 423.83 80.9886C423.117 81.9659 422.144 82.697 420.909 83.1818C419.674 83.6667 418.273 83.9091 416.705 83.9091ZM416.739 73.5227C417.61 73.5227 418.352 73.3106 418.966 72.8864C419.58 72.4621 420.045 71.8523 420.364 71.0568C420.682 70.2614 420.841 69.3068 420.841 68.1932C420.841 67.0947 420.682 66.1326 420.364 65.3068C420.053 64.4811 419.591 63.8409 418.977 63.3864C418.371 62.9242 417.625 62.6932 416.739 62.6932C415.822 62.6932 415.057 62.9318 414.443 63.4091C413.83 63.8864 413.367 64.5417 413.057 65.375C412.746 66.2008 412.591 67.1402 412.591 68.1932C412.591 69.2614 412.746 70.197 413.057 71C413.375 71.7955 413.841 72.4167 414.455 72.8636C415.076 73.303 415.837 73.5227 416.739 73.5227ZM433.227 66.7727V77H429.114V59.5455H433.045V62.5114H433.25C433.652 61.5341 434.292 60.7576 435.17 60.1818C436.057 59.6061 437.152 59.3182 438.455 59.3182C439.659 59.3182 440.708 59.5758 441.602 60.0909C442.504 60.6061 443.201 61.3523 443.693 62.3295C444.193 63.3068 444.439 64.4924 444.432 65.8864V77H440.318V66.5227C440.318 65.3561 440.015 64.4432 439.409 63.7841C438.811 63.125 437.981 62.7955 436.92 62.7955C436.201 62.7955 435.561 62.9545 435 63.2727C434.447 63.5833 434.011 64.0341 433.693 64.625C433.383 65.2159 433.227 65.9318 433.227 66.7727ZM456.341 77.3409C454.591 77.3409 453.08 76.9773 451.807 76.25C450.542 75.5152 449.568 74.4773 448.886 73.1364C448.205 71.7879 447.864 70.2008 447.864 68.375C447.864 66.5795 448.205 65.0038 448.886 63.6477C449.576 62.2841 450.538 61.2235 451.773 60.4659C453.008 59.7008 454.458 59.3182 456.125 59.3182C457.201 59.3182 458.216 59.4924 459.17 59.8409C460.133 60.1818 460.981 60.7121 461.716 61.4318C462.458 62.1515 463.042 63.0682 463.466 64.1818C463.89 65.2879 464.102 66.6061 464.102 68.1364V69.3977H449.795V66.625H460.159C460.152 65.8371 459.981 65.1364 459.648 64.5227C459.314 63.9015 458.848 63.4129 458.25 63.0568C457.659 62.7008 456.97 62.5227 456.182 62.5227C455.341 62.5227 454.602 62.7273 453.966 63.1364C453.33 63.5379 452.833 64.0682 452.477 64.7273C452.129 65.3788 451.951 66.0947 451.943 66.875V69.2955C451.943 70.3106 452.129 71.1818 452.5 71.9091C452.871 72.6288 453.39 73.1818 454.057 73.5682C454.723 73.947 455.504 74.1364 456.398 74.1364C456.996 74.1364 457.538 74.053 458.023 73.8864C458.508 73.7121 458.928 73.4583 459.284 73.125C459.64 72.7917 459.909 72.3788 460.091 71.8864L463.932 72.3182C463.689 73.3333 463.227 74.2197 462.545 74.9773C461.871 75.7273 461.008 76.3106 459.955 76.7273C458.902 77.1364 457.697 77.3409 456.341 77.3409Z" fill="black"/>
<path d="M752.292 92.584C744.789 92.584 737.591 89.6025 732.286 84.298C726.981 78.9932 724 71.7952 724 64.292C724 56.7888 726.982 49.5913 732.286 44.286C737.591 38.9812 744.789 36 752.292 36C759.795 36 766.993 38.9815 772.298 44.286C777.603 49.5907 780.584 56.7888 780.584 64.292C780.576 71.7924 777.592 78.985 772.287 84.2869C766.985 89.5916 759.792 92.5756 752.292 92.584ZM752.292 40.3526C745.943 40.3526 739.855 42.8744 735.363 47.3628C730.874 51.8541 728.353 57.9421 728.353 64.292C728.353 70.6419 730.874 76.7293 735.363 81.2212C739.854 85.7099 745.942 88.2314 752.292 88.2314C758.642 88.2314 764.729 85.7096 769.221 81.2212C773.71 76.7299 776.231 70.6419 776.231 64.292C776.223 57.9453 773.699 51.8595 769.213 47.3711C764.724 42.8852 758.638 40.361 752.292 40.3526Z" fill="black"/>
<path d="M754.659 77.6166L751.623 74.499L761.764 64.6349L751.894 54.4937L755.017 51.4577L767.917 64.7168L754.659 77.6166Z" fill="black"/>
<path d="M737.602 66.4307L737.607 62.0781L764.811 62.1161L764.805 66.4688L737.602 66.4307Z" fill="black"/>
<path d="M104.079 26.0008C87.5865 26.0008 74.2352 37.7322 74.2352 52.2999C74.2352 66.8677 87.5865 78.599 104.079 78.599C110.049 78.599 115.624 77.0241 120.336 74.3481C124.576 76.8673 129.131 76.7904 131.724 76.3967C132.509 76.3167 132.665 75.2955 132.037 74.9018C129.444 73.2469 128.11 70.8846 127.324 68.7591C131.487 64.2713 134 58.5223 134 52.2227C134.003 37.7353 120.572 26 104.079 26L104.079 26.0008ZM106.123 62.854C106.123 63.4846 105.573 64.0352 104.945 64.0352H101.959C101.331 64.0352 100.781 63.4846 100.781 62.854V60.8854C100.781 60.2549 101.331 59.7043 101.959 59.7043H104.945C105.573 59.7043 106.123 60.2549 106.123 60.8854V62.854ZM110.912 51.1991C110.126 52.3002 109.105 53.1677 107.85 53.8751C107.144 54.3488 106.672 54.8194 106.436 55.2931C106.279 55.6869 106.123 56.0806 106.123 56.6312C106.123 57.0249 105.73 57.3386 105.257 57.3386H101.567C101.094 57.3386 100.702 56.9449 100.702 56.4712C100.781 55.4469 101.015 54.5826 101.487 54.0289C102.036 53.3214 102.978 52.454 104.316 51.4297C105.021 50.956 105.573 50.4053 105.966 49.7748C106.359 49.1442 106.595 48.3567 106.595 47.4924C106.595 46.625 106.359 45.9175 105.889 45.3669C105.417 44.8163 104.711 44.5795 103.846 44.5795C103.141 44.5795 102.512 44.8164 102.039 45.2101C101.726 45.4469 101.567 45.8406 101.41 46.3112C101.254 46.8618 100.781 47.1787 100.232 47.1787L96.7779 47.0987C96.3852 47.0987 95.9925 46.705 96.0723 46.3113C96.2288 44.4995 96.9375 43.0815 98.1922 42.0603C99.6065 40.9592 101.57 40.4054 103.926 40.4054C106.439 40.4054 108.482 41.036 109.896 42.294C111.31 43.5552 112.096 45.287 112.096 47.4924C112.09 48.8366 111.697 50.0979 110.912 51.1991ZM64.4976 90.8084C61.0432 87.028 59 82.3032 59 77.1084C59 69.6277 63.3195 62.9344 69.9151 58.9971C73.2928 73.0908 87.3496 83.7214 104.079 83.7214C105.257 83.7214 106.435 83.6414 107.533 83.5645C104.392 92.4634 94.9672 99 83.7356 99C78.7871 99 74.1549 97.7388 70.228 95.4565C66.6938 97.582 62.9234 97.5051 60.7234 97.1882C60.0945 97.1083 59.938 96.3208 60.4872 95.9271C62.6899 94.509 63.8687 92.5401 64.4976 90.8084Z" fill="black"/>
</svg>
