<svg width="802" height="130" viewBox="0 0 802 130" fill="none" xmlns="http://www.w3.org/2000/svg">
<path d="M559.292 103.584C551.789 103.584 544.591 100.602 539.286 95.298C533.981 89.9932 531 82.7952 531 75.292C531 67.7888 533.982 60.5913 539.286 55.286C544.591 49.9812 551.789 47 559.292 47C566.795 47 573.993 49.9815 579.298 55.286C584.603 60.5907 587.584 67.7888 587.584 75.292C587.576 82.7924 584.592 89.985 579.287 95.2869C573.985 100.592 566.792 103.576 559.292 103.584ZM559.292 51.3526C552.943 51.3526 546.855 53.8744 542.363 58.3628C537.874 62.8541 535.353 68.9421 535.353 75.292C535.353 81.6419 537.874 87.7293 542.363 92.2212C546.854 96.7099 552.942 99.2314 559.292 99.2314C565.642 99.2314 571.729 96.7096 576.221 92.2212C580.71 87.7299 583.231 81.6419 583.231 75.292C583.223 68.9453 580.699 62.8595 576.213 58.3711C571.724 53.8852 565.638 51.361 559.292 51.3526Z" fill="black"/>
<path d="M561.659 88.6166L558.623 85.499L568.764 75.6349L558.894 65.4937L562.017 62.4577L574.917 75.7168L561.659 88.6166Z" fill="black"/>
<path d="M544.602 77.4307L544.607 73.0781L571.811 73.1161L571.805 77.4688L544.602 77.4307Z" fill="black"/>
<rect width="802" height="130" fill="#F6927A"/>
<path d="M196.182 73H188.295V49.7273H196.341C198.652 49.7273 200.636 50.1932 202.295 51.125C203.962 52.0492 205.242 53.3788 206.136 55.1136C207.03 56.8485 207.477 58.9242 207.477 61.3409C207.477 63.7652 207.027 65.8485 206.125 67.5909C205.231 69.3333 203.939 70.6705 202.25 71.6023C200.568 72.5341 198.545 73 196.182 73ZM192.511 69.3523H195.977C197.598 69.3523 198.951 69.0568 200.034 68.4659C201.117 67.8674 201.932 66.9773 202.477 65.7955C203.023 64.6061 203.295 63.1212 203.295 61.3409C203.295 59.5606 203.023 58.0833 202.477 56.9091C201.932 55.7273 201.125 54.8447 200.057 54.2614C198.996 53.6705 197.678 53.375 196.102 53.375H192.511V69.3523ZM219.028 73.3409C217.278 73.3409 215.767 72.9773 214.494 72.25C213.229 71.5152 212.256 70.4773 211.574 69.1364C210.892 67.7879 210.551 66.2008 210.551 64.375C210.551 62.5795 210.892 61.0038 211.574 59.6477C212.263 58.2841 213.225 57.2235 214.46 56.4659C215.695 55.7008 217.146 55.3182 218.812 55.3182C219.888 55.3182 220.903 55.4924 221.858 55.8409C222.82 56.1818 223.669 56.7121 224.403 57.4318C225.146 58.1515 225.729 59.0682 226.153 60.1818C226.578 61.2879 226.79 62.6061 226.79 64.1364V65.3977H212.483V62.625H222.847C222.839 61.8371 222.669 61.1364 222.335 60.5227C222.002 59.9015 221.536 59.4129 220.938 59.0568C220.347 58.7008 219.657 58.5227 218.869 58.5227C218.028 58.5227 217.29 58.7273 216.653 59.1364C216.017 59.5379 215.521 60.0682 215.165 60.7273C214.816 61.3788 214.638 62.0947 214.631 62.875V65.2955C214.631 66.3106 214.816 67.1818 215.188 67.9091C215.559 68.6288 216.078 69.1818 216.744 69.5682C217.411 69.947 218.191 70.1364 219.085 70.1364C219.684 70.1364 220.225 70.053 220.71 69.8864C221.195 69.7121 221.616 69.4583 221.972 69.125C222.328 68.7917 222.597 68.3788 222.778 67.8864L226.619 68.3182C226.377 69.3333 225.915 70.2197 225.233 70.9773C224.559 71.7273 223.695 72.3106 222.642 72.7273C221.589 73.1364 220.384 73.3409 219.028 73.3409ZM217.119 53.25L219.665 48.0568H223.688L220.199 53.25H217.119ZM237.884 73.3409C236.141 73.3409 234.645 72.9583 233.395 72.1932C232.152 71.428 231.194 70.3712 230.52 69.0227C229.853 67.6667 229.52 66.1061 229.52 64.3409C229.52 62.5682 229.861 61.0038 230.543 59.6477C231.224 58.2841 232.187 57.2235 233.429 56.4659C234.679 55.7008 236.156 55.3182 237.861 55.3182C239.277 55.3182 240.531 55.5795 241.622 56.1023C242.721 56.6174 243.596 57.3485 244.247 58.2955C244.899 59.2348 245.27 60.3333 245.361 61.5909H241.429C241.27 60.75 240.891 60.0492 240.293 59.4886C239.702 58.9205 238.91 58.6364 237.918 58.6364C237.077 58.6364 236.338 58.8636 235.702 59.3182C235.065 59.7652 234.569 60.4091 234.213 61.25C233.865 62.0909 233.69 63.0985 233.69 64.2727C233.69 65.4621 233.865 66.4848 234.213 67.3409C234.562 68.1894 235.05 68.8447 235.679 69.3068C236.315 69.7614 237.062 69.9886 237.918 69.9886C238.524 69.9886 239.065 69.875 239.543 69.6477C240.027 69.4129 240.433 69.0758 240.759 68.6364C241.084 68.197 241.308 67.6629 241.429 67.0341H245.361C245.262 68.2689 244.899 69.3636 244.27 70.3182C243.641 71.2652 242.785 72.0076 241.702 72.5455C240.618 73.0758 239.346 73.3409 237.884 73.3409ZM256.352 73.3409C254.648 73.3409 253.17 72.9659 251.92 72.2159C250.67 71.4659 249.701 70.4167 249.011 69.0682C248.33 67.7197 247.989 66.1439 247.989 64.3409C247.989 62.5379 248.33 60.9583 249.011 59.6023C249.701 58.2462 250.67 57.1932 251.92 56.4432C253.17 55.6932 254.648 55.3182 256.352 55.3182C258.057 55.3182 259.534 55.6932 260.784 56.4432C262.034 57.1932 263 58.2462 263.682 59.6023C264.371 60.9583 264.716 62.5379 264.716 64.3409C264.716 66.1439 264.371 67.7197 263.682 69.0682C263 70.4167 262.034 71.4659 260.784 72.2159C259.534 72.9659 258.057 73.3409 256.352 73.3409ZM256.375 70.0455C257.299 70.0455 258.072 69.7917 258.693 69.2841C259.314 68.7689 259.777 68.0795 260.08 67.2159C260.39 66.3523 260.545 65.3902 260.545 64.3295C260.545 63.2614 260.39 62.2955 260.08 61.4318C259.777 60.5606 259.314 59.8674 258.693 59.3523C258.072 58.8371 257.299 58.5795 256.375 58.5795C255.428 58.5795 254.64 58.8371 254.011 59.3523C253.39 59.8674 252.924 60.5606 252.614 61.4318C252.311 62.2955 252.159 63.2614 252.159 64.3295C252.159 65.3902 252.311 66.3523 252.614 67.2159C252.924 68.0795 253.39 68.7689 254.011 69.2841C254.64 69.7917 255.428 70.0455 256.375 70.0455ZM279.332 65.6591V55.5455H283.446V73H279.457V69.8977H279.276C278.882 70.875 278.234 71.6742 277.332 72.2955C276.438 72.9167 275.336 73.2273 274.026 73.2273C272.882 73.2273 271.87 72.9735 270.991 72.4659C270.12 71.9508 269.438 71.2045 268.946 70.2273C268.454 69.2424 268.207 68.053 268.207 66.6591V55.5455H272.321V66.0227C272.321 67.1288 272.624 68.0076 273.23 68.6591C273.836 69.3106 274.632 69.6364 275.616 69.6364C276.223 69.6364 276.81 69.4886 277.378 69.1932C277.946 68.8977 278.412 68.4583 278.776 67.875C279.147 67.2841 279.332 66.5455 279.332 65.6591ZM303.267 55.5455L297.051 73H292.506L286.29 55.5455H290.676L294.688 68.5114H294.869L298.892 55.5455H303.267ZM306.114 73V55.5455H310.102V58.4545H310.284C310.602 57.447 311.148 56.6705 311.92 56.125C312.701 55.572 313.591 55.2955 314.591 55.2955C314.818 55.2955 315.072 55.3068 315.352 55.3295C315.64 55.3447 315.879 55.3712 316.068 55.4091V59.1932C315.894 59.1326 315.617 59.0795 315.239 59.0341C314.867 58.9811 314.508 58.9545 314.159 58.9545C313.409 58.9545 312.735 59.1174 312.136 59.4432C311.545 59.7614 311.08 60.2045 310.739 60.7727C310.398 61.3409 310.227 61.9962 310.227 62.7386V73H306.114ZM318.801 73V55.5455H322.915V73H318.801ZM320.869 53.0682C320.218 53.0682 319.657 52.8523 319.188 52.4205C318.718 51.9811 318.483 51.4545 318.483 50.8409C318.483 50.2197 318.718 49.6932 319.188 49.2614C319.657 48.822 320.218 48.6023 320.869 48.6023C321.528 48.6023 322.089 48.822 322.551 49.2614C323.021 49.6932 323.256 50.2197 323.256 50.8409C323.256 51.4545 323.021 51.9811 322.551 52.4205C322.089 52.8523 321.528 53.0682 320.869 53.0682ZM327.145 73V55.5455H331.134V58.4545H331.315C331.634 57.447 332.179 56.6705 332.952 56.125C333.732 55.572 334.622 55.2955 335.622 55.2955C335.849 55.2955 336.103 55.3068 336.384 55.3295C336.671 55.3447 336.91 55.3712 337.099 55.4091V59.1932C336.925 59.1326 336.649 59.0795 336.27 59.0341C335.899 58.9811 335.539 58.9545 335.19 58.9545C334.44 58.9545 333.766 59.1174 333.168 59.4432C332.577 59.7614 332.111 60.2045 331.77 60.7727C331.429 61.3409 331.259 61.9962 331.259 62.7386V73H327.145ZM351.884 62.7727V73H347.77V55.5455H351.702V58.5114H351.906C352.308 57.5341 352.948 56.7576 353.827 56.1818C354.713 55.6061 355.808 55.3182 357.111 55.3182C358.315 55.3182 359.365 55.5758 360.259 56.0909C361.16 56.6061 361.857 57.3523 362.349 58.3295C362.849 59.3068 363.096 60.4924 363.088 61.8864V73H358.974V62.5227C358.974 61.3561 358.671 60.4432 358.065 59.7841C357.467 59.125 356.637 58.7955 355.577 58.7955C354.857 58.7955 354.217 58.9545 353.656 59.2727C353.103 59.5833 352.668 60.0341 352.349 60.625C352.039 61.2159 351.884 61.9318 351.884 62.7727ZM374.884 73.3409C373.179 73.3409 371.702 72.9659 370.452 72.2159C369.202 71.4659 368.232 70.4167 367.543 69.0682C366.861 67.7197 366.52 66.1439 366.52 64.3409C366.52 62.5379 366.861 60.9583 367.543 59.6023C368.232 58.2462 369.202 57.1932 370.452 56.4432C371.702 55.6932 373.179 55.3182 374.884 55.3182C376.588 55.3182 378.065 55.6932 379.315 56.4432C380.565 57.1932 381.531 58.2462 382.213 59.6023C382.902 60.9583 383.247 62.5379 383.247 64.3409C383.247 66.1439 382.902 67.7197 382.213 69.0682C381.531 70.4167 380.565 71.4659 379.315 72.2159C378.065 72.9659 376.588 73.3409 374.884 73.3409ZM374.906 70.0455C375.83 70.0455 376.603 69.7917 377.224 69.2841C377.846 68.7689 378.308 68.0795 378.611 67.2159C378.921 66.3523 379.077 65.3902 379.077 64.3295C379.077 63.2614 378.921 62.2955 378.611 61.4318C378.308 60.5606 377.846 59.8674 377.224 59.3523C376.603 58.8371 375.83 58.5795 374.906 58.5795C373.959 58.5795 373.171 58.8371 372.543 59.3523C371.921 59.8674 371.455 60.5606 371.145 61.4318C370.842 62.2955 370.69 63.2614 370.69 64.3295C370.69 65.3902 370.842 66.3523 371.145 67.2159C371.455 68.0795 371.921 68.7689 372.543 69.2841C373.171 69.7917 373.959 70.0455 374.906 70.0455ZM400.534 60.1591L396.784 60.5682C396.678 60.1894 396.492 59.8333 396.227 59.5C395.97 59.1667 395.621 58.8977 395.182 58.6932C394.742 58.4886 394.205 58.3864 393.568 58.3864C392.712 58.3864 391.992 58.572 391.409 58.9432C390.833 59.3144 390.549 59.7955 390.557 60.3864C390.549 60.8939 390.735 61.3068 391.114 61.625C391.5 61.9432 392.136 62.2045 393.023 62.4091L396 63.0455C397.652 63.4015 398.879 63.9659 399.682 64.7386C400.492 65.5114 400.902 66.5227 400.909 67.7727C400.902 68.8712 400.58 69.8409 399.943 70.6818C399.314 71.5152 398.439 72.1667 397.318 72.6364C396.197 73.1061 394.909 73.3409 393.455 73.3409C391.318 73.3409 389.598 72.8939 388.295 72C386.992 71.0985 386.216 69.8447 385.966 68.2386L389.977 67.8523C390.159 68.6402 390.545 69.2348 391.136 69.6364C391.727 70.0379 392.496 70.2386 393.443 70.2386C394.42 70.2386 395.205 70.0379 395.795 69.6364C396.394 69.2348 396.693 68.7386 396.693 68.1477C396.693 67.6477 396.5 67.2348 396.114 66.9091C395.735 66.5833 395.144 66.3333 394.341 66.1591L391.364 65.5341C389.689 65.1856 388.451 64.5985 387.648 63.7727C386.845 62.9394 386.447 61.8864 386.455 60.6136C386.447 59.5379 386.739 58.6061 387.33 57.8182C387.928 57.0227 388.758 56.4091 389.818 55.9773C390.886 55.5379 392.117 55.3182 393.511 55.3182C395.557 55.3182 397.167 55.7538 398.341 56.625C399.523 57.4962 400.254 58.6742 400.534 60.1591ZM421.08 55.5455V58.7273H410.761V55.5455H421.08ZM413.341 73V53.8977C413.341 52.7235 413.583 51.7462 414.068 50.9659C414.561 50.1856 415.22 49.6023 416.045 49.2159C416.871 48.8295 417.788 48.6364 418.795 48.6364C419.508 48.6364 420.14 48.6932 420.693 48.8068C421.246 48.9205 421.655 49.0227 421.92 49.1136L421.102 52.2955C420.928 52.2424 420.708 52.1894 420.443 52.1364C420.178 52.0758 419.883 52.0455 419.557 52.0455C418.792 52.0455 418.25 52.2311 417.932 52.6023C417.621 52.9659 417.466 53.4886 417.466 54.1705V73H413.341ZM431.259 73.3409C429.554 73.3409 428.077 72.9659 426.827 72.2159C425.577 71.4659 424.607 70.4167 423.918 69.0682C423.236 67.7197 422.895 66.1439 422.895 64.3409C422.895 62.5379 423.236 60.9583 423.918 59.6023C424.607 58.2462 425.577 57.1932 426.827 56.4432C428.077 55.6932 429.554 55.3182 431.259 55.3182C432.963 55.3182 434.44 55.6932 435.69 56.4432C436.94 57.1932 437.906 58.2462 438.588 59.6023C439.277 60.9583 439.622 62.5379 439.622 64.3409C439.622 66.1439 439.277 67.7197 438.588 69.0682C437.906 70.4167 436.94 71.4659 435.69 72.2159C434.44 72.9659 432.963 73.3409 431.259 73.3409ZM431.281 70.0455C432.205 70.0455 432.978 69.7917 433.599 69.2841C434.221 68.7689 434.683 68.0795 434.986 67.2159C435.296 66.3523 435.452 65.3902 435.452 64.3295C435.452 63.2614 435.296 62.2955 434.986 61.4318C434.683 60.5606 434.221 59.8674 433.599 59.3523C432.978 58.8371 432.205 58.5795 431.281 58.5795C430.334 58.5795 429.546 58.8371 428.918 59.3523C428.296 59.8674 427.83 60.5606 427.52 61.4318C427.217 62.2955 427.065 63.2614 427.065 64.3295C427.065 65.3902 427.217 66.3523 427.52 67.2159C427.83 68.0795 428.296 68.7689 428.918 69.2841C429.546 69.7917 430.334 70.0455 431.281 70.0455ZM443.114 73V55.5455H447.102V58.4545H447.284C447.602 57.447 448.148 56.6705 448.92 56.125C449.701 55.572 450.591 55.2955 451.591 55.2955C451.818 55.2955 452.072 55.3068 452.352 55.3295C452.64 55.3447 452.879 55.3712 453.068 55.4091V59.1932C452.894 59.1326 452.617 59.0795 452.239 59.0341C451.867 58.9811 451.508 58.9545 451.159 58.9545C450.409 58.9545 449.735 59.1174 449.136 59.4432C448.545 59.7614 448.08 60.2045 447.739 60.7727C447.398 61.3409 447.227 61.9962 447.227 62.7386V73H443.114ZM455.801 73V55.5455H459.733V58.5114H459.938C460.301 57.5114 460.903 56.7311 461.744 56.1705C462.585 55.6023 463.589 55.3182 464.756 55.3182C465.938 55.3182 466.934 55.6061 467.744 56.1818C468.563 56.75 469.138 57.5265 469.472 58.5114H469.653C470.04 57.5417 470.691 56.7689 471.608 56.1932C472.532 55.6098 473.627 55.3182 474.892 55.3182C476.498 55.3182 477.809 55.8258 478.824 56.8409C479.839 57.8561 480.347 59.3371 480.347 61.2841V73H476.222V61.9205C476.222 60.8371 475.934 60.0455 475.358 59.5455C474.782 59.0379 474.078 58.7841 473.244 58.7841C472.252 58.7841 471.475 59.0947 470.915 59.7159C470.362 60.3295 470.085 61.1288 470.085 62.1136V73H466.051V61.75C466.051 60.8485 465.778 60.1288 465.233 59.5909C464.695 59.053 463.991 58.7841 463.119 58.7841C462.528 58.7841 461.991 58.9356 461.506 59.2386C461.021 59.5341 460.634 59.9545 460.347 60.5C460.059 61.0379 459.915 61.6667 459.915 62.3864V73H455.801ZM489.543 73.3523C488.437 73.3523 487.44 73.1553 486.554 72.7614C485.675 72.3598 484.978 71.7689 484.463 70.9886C483.955 70.2083 483.702 69.2462 483.702 68.1023C483.702 67.1174 483.884 66.303 484.247 65.6591C484.611 65.0152 485.107 64.5 485.736 64.1136C486.365 63.7273 487.073 63.4356 487.861 63.2386C488.656 63.0341 489.478 62.8864 490.327 62.7955C491.349 62.6894 492.179 62.5947 492.815 62.5114C493.452 62.4205 493.914 62.2841 494.202 62.1023C494.497 61.9129 494.645 61.6212 494.645 61.2273V61.1591C494.645 60.303 494.391 59.6402 493.884 59.1705C493.376 58.7008 492.645 58.4659 491.69 58.4659C490.683 58.4659 489.884 58.6856 489.293 59.125C488.709 59.5644 488.315 60.0833 488.111 60.6818L484.27 60.1364C484.573 59.0758 485.073 58.1894 485.77 57.4773C486.467 56.7576 487.319 56.2197 488.327 55.8636C489.334 55.5 490.448 55.3182 491.668 55.3182C492.509 55.3182 493.346 55.4167 494.179 55.6136C495.012 55.8106 495.774 56.1364 496.463 56.5909C497.152 57.0379 497.705 57.6477 498.122 58.4205C498.546 59.1932 498.759 60.1591 498.759 61.3182V73H494.804V70.6023H494.668C494.418 71.0871 494.065 71.5417 493.611 71.9659C493.164 72.3826 492.599 72.7197 491.918 72.9773C491.243 73.2273 490.452 73.3523 489.543 73.3523ZM490.611 70.3295C491.437 70.3295 492.152 70.1667 492.759 69.8409C493.365 69.5076 493.83 69.0682 494.156 68.5227C494.49 67.9773 494.656 67.3826 494.656 66.7386V64.6818C494.527 64.7879 494.308 64.8864 493.997 64.9773C493.694 65.0682 493.353 65.1477 492.974 65.2159C492.596 65.2841 492.221 65.3447 491.849 65.3977C491.478 65.4508 491.156 65.4962 490.884 65.5341C490.27 65.6174 489.721 65.7538 489.236 65.9432C488.751 66.1326 488.368 66.3977 488.088 66.7386C487.808 67.072 487.668 67.5038 487.668 68.0341C487.668 68.7917 487.944 69.3636 488.497 69.75C489.05 70.1364 489.755 70.3295 490.611 70.3295ZM511.611 55.5455V58.7273H501.577V55.5455H511.611ZM504.054 51.3636H508.168V67.75C508.168 68.303 508.251 68.7273 508.418 69.0227C508.592 69.3106 508.819 69.5076 509.099 69.6136C509.38 69.7197 509.69 69.7727 510.031 69.7727C510.289 69.7727 510.524 69.7538 510.736 69.7159C510.955 69.678 511.122 69.6439 511.236 69.6136L511.929 72.8295C511.709 72.9053 511.395 72.9886 510.986 73.0795C510.584 73.1705 510.092 73.2235 509.509 73.2386C508.478 73.2689 507.55 73.1136 506.724 72.7727C505.899 72.4242 505.243 71.8864 504.759 71.1591C504.281 70.4318 504.046 69.5227 504.054 68.4318V51.3636ZM515.051 73V55.5455H519.165V73H515.051ZM517.119 53.0682C516.468 53.0682 515.907 52.8523 515.438 52.4205C514.968 51.9811 514.733 51.4545 514.733 50.8409C514.733 50.2197 514.968 49.6932 515.438 49.2614C515.907 48.822 516.468 48.6023 517.119 48.6023C517.778 48.6023 518.339 48.822 518.801 49.2614C519.271 49.6932 519.506 50.2197 519.506 50.8409C519.506 51.4545 519.271 51.9811 518.801 52.4205C518.339 52.8523 517.778 53.0682 517.119 53.0682ZM531.009 73.3409C529.304 73.3409 527.827 72.9659 526.577 72.2159C525.327 71.4659 524.357 70.4167 523.668 69.0682C522.986 67.7197 522.645 66.1439 522.645 64.3409C522.645 62.5379 522.986 60.9583 523.668 59.6023C524.357 58.2462 525.327 57.1932 526.577 56.4432C527.827 55.6932 529.304 55.3182 531.009 55.3182C532.713 55.3182 534.19 55.6932 535.44 56.4432C536.69 57.1932 537.656 58.2462 538.338 59.6023C539.027 60.9583 539.372 62.5379 539.372 64.3409C539.372 66.1439 539.027 67.7197 538.338 69.0682C537.656 70.4167 536.69 71.4659 535.44 72.2159C534.19 72.9659 532.713 73.3409 531.009 73.3409ZM531.031 70.0455C531.955 70.0455 532.728 69.7917 533.349 69.2841C533.971 68.7689 534.433 68.0795 534.736 67.2159C535.046 66.3523 535.202 65.3902 535.202 64.3295C535.202 63.2614 535.046 62.2955 534.736 61.4318C534.433 60.5606 533.971 59.8674 533.349 59.3523C532.728 58.8371 531.955 58.5795 531.031 58.5795C530.084 58.5795 529.296 58.8371 528.668 59.3523C528.046 59.8674 527.58 60.5606 527.27 61.4318C526.967 62.2955 526.815 63.2614 526.815 64.3295C526.815 65.3902 526.967 66.3523 527.27 67.2159C527.58 68.0795 528.046 68.7689 528.668 69.2841C529.296 69.7917 530.084 70.0455 531.031 70.0455ZM546.977 62.7727V73H542.864V55.5455H546.795V58.5114H547C547.402 57.5341 548.042 56.7576 548.92 56.1818C549.807 55.6061 550.902 55.3182 552.205 55.3182C553.409 55.3182 554.458 55.5758 555.352 56.0909C556.254 56.6061 556.951 57.3523 557.443 58.3295C557.943 59.3068 558.189 60.4924 558.182 61.8864V73H554.068V62.5227C554.068 61.3561 553.765 60.4432 553.159 59.7841C552.561 59.125 551.731 58.7955 550.67 58.7955C549.951 58.7955 549.311 58.9545 548.75 59.2727C548.197 59.5833 547.761 60.0341 547.443 60.625C547.133 61.2159 546.977 61.9318 546.977 62.7727ZM576.159 60.1591L572.409 60.5682C572.303 60.1894 572.117 59.8333 571.852 59.5C571.595 59.1667 571.246 58.8977 570.807 58.6932C570.367 58.4886 569.83 58.3864 569.193 58.3864C568.337 58.3864 567.617 58.572 567.034 58.9432C566.458 59.3144 566.174 59.7955 566.182 60.3864C566.174 60.8939 566.36 61.3068 566.739 61.625C567.125 61.9432 567.761 62.2045 568.648 62.4091L571.625 63.0455C573.277 63.4015 574.504 63.9659 575.307 64.7386C576.117 65.5114 576.527 66.5227 576.534 67.7727C576.527 68.8712 576.205 69.8409 575.568 70.6818C574.939 71.5152 574.064 72.1667 572.943 72.6364C571.822 73.1061 570.534 73.3409 569.08 73.3409C566.943 73.3409 565.223 72.8939 563.92 72C562.617 71.0985 561.841 69.8447 561.591 68.2386L565.602 67.8523C565.784 68.6402 566.17 69.2348 566.761 69.6364C567.352 70.0379 568.121 70.2386 569.068 70.2386C570.045 70.2386 570.83 70.0379 571.42 69.6364C572.019 69.2348 572.318 68.7386 572.318 68.1477C572.318 67.6477 572.125 67.2348 571.739 66.9091C571.36 66.5833 570.769 66.3333 569.966 66.1591L566.989 65.5341C565.314 65.1856 564.076 64.5985 563.273 63.7727C562.47 62.9394 562.072 61.8864 562.08 60.6136C562.072 59.5379 562.364 58.6061 562.955 57.8182C563.553 57.0227 564.383 56.4091 565.443 55.9773C566.511 55.5379 567.742 55.3182 569.136 55.3182C571.182 55.3182 572.792 55.7538 573.966 56.625C575.148 57.4962 575.879 58.6742 576.159 60.1591Z" fill="black"/>
<path d="M752.292 92.584C744.789 92.584 737.591 89.6025 732.286 84.298C726.981 78.9932 724 71.7952 724 64.292C724 56.7888 726.982 49.5913 732.286 44.286C737.591 38.9812 744.789 36 752.292 36C759.795 36 766.993 38.9815 772.298 44.286C777.603 49.5907 780.584 56.7888 780.584 64.292C780.576 71.7924 777.592 78.985 772.287 84.2869C766.985 89.5916 759.792 92.5756 752.292 92.584ZM752.292 40.3526C745.943 40.3526 739.855 42.8744 735.363 47.3628C730.874 51.8541 728.353 57.9421 728.353 64.292C728.353 70.6419 730.874 76.7293 735.363 81.2212C739.854 85.7099 745.942 88.2314 752.292 88.2314C758.642 88.2314 764.729 85.7096 769.221 81.2212C773.71 76.7299 776.231 70.6419 776.231 64.292C776.223 57.9453 773.699 51.8595 769.213 47.3711C764.724 42.8852 758.638 40.361 752.292 40.3526Z" fill="black"/>
<path d="M754.659 77.6166L751.623 74.499L761.764 64.6349L751.894 54.4937L755.017 51.4577L767.917 64.7168L754.659 77.6166Z" fill="black"/>
<path d="M737.602 66.4307L737.607 62.0781L764.811 62.1161L764.805 66.4688L737.602 66.4307Z" fill="black"/>
<g clip-path="url(#clip0_9_72)">
<path fill-rule="evenodd" clip-rule="evenodd" d="M68.9097 25C68.5712 25 68.2484 25.1297 68.0111 25.367C67.7738 25.6043 67.6377 25.9271 67.6377 26.2625V40.1208C67.6377 40.4562 67.7706 40.7821 68.0079 41.0194C68.2484 41.2567 68.5711 41.3927 68.9097 41.3896C69.609 41.3864 70.1722 40.8201 70.169 40.1208V27.5245H130.897V63.8797H84.4396C84.3162 63.8797 84.1928 63.9019 84.0726 63.9398C84.0409 63.9525 84.0093 63.9651 83.9776 63.981C83.8954 64.0126 83.8194 64.0506 83.7467 64.098C83.7119 64.1234 83.6739 64.1487 83.6423 64.1771C83.579 64.2309 83.5189 64.2879 83.4682 64.3512C83.4398 64.386 83.4144 64.4208 83.3923 64.4556C83.3417 64.5315 83.3005 64.6106 83.2689 64.6929C83.2562 64.7214 83.2468 64.753 83.2341 64.7815C83.1993 64.9017 83.1771 65.0251 83.1771 65.1485C83.1771 65.2719 83.1993 65.3953 83.2341 65.5124C83.2468 65.544 83.2594 65.5725 83.2721 65.601C83.3069 65.6864 83.348 65.7655 83.3955 65.8414C83.4208 65.8763 83.4461 65.9111 83.4746 65.9427C83.5252 66.006 83.579 66.0598 83.6423 66.1104C83.6771 66.142 83.715 66.1705 83.753 66.1958C83.8194 66.2401 83.8922 66.2781 83.9682 66.3066C84.003 66.3255 84.0409 66.3414 84.0757 66.354C84.1928 66.3888 84.3162 66.411 84.4396 66.411H133.501V68.3537H85.363C84.6669 68.3568 84.1037 68.92 84.1037 69.6161C84.1069 70.3122 84.6669 70.8755 85.363 70.8786H134.773C135.466 70.8755 136.029 70.3122 136.032 69.6161V65.1485C136.035 64.4524 135.472 63.8829 134.773 63.8797H133.428V26.2625C133.425 25.5664 132.862 25.0032 132.166 25L68.9097 25ZM68.9097 43.9208C64.5654 43.9208 61.0059 47.4456 61.0059 51.7708C61.0059 54.3021 62.2272 56.5581 64.1098 57.9945C59.4966 59.8708 56.2408 64.3701 56.2408 69.6253V77.8395H56.2377C56.2408 78.5388 56.8104 79.102 57.5096 79.0988H60.5851L62.3127 94.4508C62.3854 95.0868 62.9233 95.5677 63.5625 95.5708H74.2448C74.8871 95.574 75.4313 95.0931 75.5041 94.4508L77.2253 79.0988H80.3071C81.0032 79.0988 81.5665 78.5356 81.5696 77.8395V69.6253C81.5696 64.3698 78.3233 59.8737 73.7133 57.9978C75.5959 56.5613 76.8172 54.3053 76.8172 51.7741C76.8172 47.4488 73.2576 43.924 68.9102 43.924L68.9097 43.9208ZM68.9097 46.452C71.8998 46.452 74.2823 48.8251 74.2823 51.7708C74.2823 54.5678 72.1339 56.846 69.359 57.0675C69.2103 57.0612 69.0616 57.058 68.9129 57.058C68.7642 57.058 68.6155 57.0612 68.4668 57.0675C65.6919 56.846 63.5435 54.5648 63.5435 51.7708C63.5435 48.8251 65.926 46.452 68.9161 46.452H68.9097ZM68.3845 59.6016H68.413C68.5775 59.6111 68.742 59.6174 68.9097 59.6174C69.0774 59.6174 69.2451 59.6111 69.4096 59.6016C74.8139 59.8547 79.0381 64.2148 79.0381 69.6221V76.5672H76.0955C75.4501 76.5704 74.9122 77.0576 74.8426 77.6967L73.115 93.039H64.695L62.9769 77.6967C62.9073 77.0544 62.3631 76.5672 61.7145 76.5672H58.7688V69.6253C58.7688 64.2242 62.9896 59.8704 68.3843 59.6047L68.3845 59.6016ZM94.9565 74.0641C90.8591 74.0641 87.502 77.3927 87.502 81.4743C87.502 83.7873 88.5809 85.8566 90.2643 87.2139C85.5973 89.0617 82.3004 93.5832 82.3004 98.8795V104.739H82.2972C82.3004 105.432 82.8636 105.996 83.5597 105.999H106.357C107.056 106.002 107.626 105.436 107.629 104.739V98.8795C107.629 93.5829 104.326 89.0615 99.6556 87.2139C101.336 85.8565 102.418 83.7872 102.418 81.4743C102.418 77.3927 99.0576 74.0641 94.9602 74.0641H94.9565ZM124.1 74.0641C120.003 74.0641 116.633 77.3927 116.633 81.4743C116.633 83.7873 117.718 85.8566 119.402 87.2139C114.732 89.0617 111.428 93.5832 111.428 98.8795V104.739H111.431C111.435 105.436 112.004 106.002 112.703 105.999H135.501C136.197 105.996 136.76 105.432 136.763 104.739V98.8795C136.763 93.5829 133.463 89.0615 128.799 87.2139C130.483 85.8565 131.562 83.7872 131.562 81.4743C131.562 77.3927 128.205 74.0641 124.107 74.0641H124.1ZM94.9565 76.5954C97.6998 76.5954 99.8925 78.7723 99.8925 81.4743C99.8925 84.0562 97.8896 86.1508 95.3205 86.3312C95.2002 86.328 95.08 86.3248 94.9598 86.3248C94.8395 86.3248 94.7193 86.328 94.6022 86.3312C92.0298 86.1508 90.0397 84.0562 90.0397 81.4743C90.0397 78.7723 92.2197 76.5954 94.9629 76.5954H94.9565ZM124.1 76.5954C126.844 76.5954 129.024 78.7723 129.024 81.4743C129.024 84.0562 127.03 86.1508 124.458 86.3312C124.338 86.328 124.221 86.3248 124.1 86.3248C123.98 86.3248 123.86 86.328 123.74 86.3312C121.167 86.1508 119.168 84.0562 119.168 81.4743C119.168 78.7723 121.36 76.5954 124.104 76.5954H124.1ZM94.5702 88.8628C94.6999 88.8692 94.8265 88.8723 94.9562 88.8723C95.0827 88.8723 95.2125 88.8692 95.339 88.8628C100.8 89.059 105.094 93.4317 105.094 98.8801V103.468H84.8277V98.8801C84.8277 93.4347 89.1125 89.0621 94.5702 88.8628ZM123.712 88.8628C123.841 88.8692 123.971 88.8723 124.101 88.8723C124.227 88.8723 124.354 88.8692 124.48 88.8628C129.942 89.059 134.229 93.4317 134.229 98.8801V103.468H113.963V98.8801C113.963 93.4347 118.253 89.0621 123.714 88.8628H123.712Z" fill="black"/>
</g>
<defs>
<clipPath id="clip0_9_72">
<rect width="81" height="81" fill="black" transform="translate(56 25)"/>
</clipPath>
</defs>
</svg>
