<?xml version="1.0" encoding="UTF-8"?>
<svg id="Layer_1" data-name="Layer 1" xmlns="http://www.w3.org/2000/svg" viewBox="0 0 1080 350">
  <defs>
    <style>
      .cls-1 {
        fill: #fff;
        stroke-width: 0px;
      }
    </style>
  </defs>
  <path class="cls-1" d="m116.72,299.78c41.4,0,75.23-35.59,75.23-80.19l.03-172.53v-3.15h-47.79v183.81c0,19.37-13.94,28.38-27.45,28.38s-27.45-9.01-27.45-28.38V43.91h-47.79v3.15l.02,172.53c0,44.6,33.81,80.19,75.21,80.19"/>
  <path class="cls-1" d="m119.11,242.55h-4.92V51.83h4.92v190.72Zm12.97-4.13h-4.92V51.88h4.92v186.54Zm-26.12,0h-4.92V51.83h4.92v186.59Z"/>
  <g>
    <path class="cls-1" d="m291.81,44.32v4.79c-10.29,0-13.53,2.12-13.53,8.88v69.63c0,5.78,2.82,8.88,10.29,8.88,19.45,0,28.61-12.26,32.98-31.43h4.37l-.85,36.23h-73.86v-4.79c9.73,0,12.69-2.25,12.69-8.88V57.99c0-6.06-2.4-8.88-12.4-8.88v-4.79h40.31Z"/>
    <path class="cls-1" d="m344.38,107.75c0,19.73,8.46,30.45,20.44,30.45,9.58,0,15.65-5.78,21.14-12.97l3.38,2.25c-7.33,10.99-16.21,15.5-29.04,15.5-17.62,0-31.15-16.07-31.15-34.82s13.39-34.81,31.01-34.81,29.88,12.68,29.88,34.39h-45.67Zm31.29-4.79c0-16.21-5.21-24.81-15.93-24.81-9.58,0-15.36,7.75-15.36,24.81h31.29Z"/>
    <path class="cls-1" d="m441.78,74.48h4.79v20.58h-4.79c-4.79-12.54-11.13-16.91-21.43-16.91-7.75,0-12.83,3.52-12.83,9.58s4.93,8.88,15.65,11.42c5.07,1.27,9.58,2.26,13.11,3.52,11,3.95,14.52,9.73,14.52,17.48,0,14.38-11.42,22.83-26.22,22.83-12.68,0-16.91-5.36-21-5.36-2.54,0-3.24,2.82-3.81,4.51h-3.95v-24.24h3.95c2.96,11.98,12.12,20.3,24.67,20.3,7.47,0,15.08-4.65,15.08-11.7s-5.22-10.29-15.22-12.97c-7.75-2.12-13.53-3.38-17.9-5.5-7.05-3.38-10.15-8.18-10.15-15.08,0-11.7,10.29-19.59,23.96-19.59,11.56,0,16.21,4.79,18.32,4.79,2.26,0,2.96-2.11,3.24-3.67Z"/>
    <path class="cls-1" d="m272.5,229.85h.28c4.37-7.75,10.15-11.84,18.04-11.84,17.9,0,30.45,14.94,30.45,33.97s-14.94,35.66-33.27,35.66c-11.42,0-17.48-7.61-20.72-7.61-2.82,0-3.95,3.24-5.07,5.64l-4.79.57c1.55-7.47,1.83-11.56,1.83-14.52v-71.32c0-3.81-1.83-5.78-9.87-5.78v-4.79l23.12-.85v40.88Zm34.39,23.4c0-19.59-6.06-30.45-17.34-30.45-6.2,0-11.7,4.51-14.66,13.81-1.69,5.22-2.4,9.02-2.4,19.87,0,5.78.14,10.43.99,13.95,2.4,10.57,8.74,12.4,15.08,12.4,11.7,0,18.32-10.57,18.32-29.6Z"/>
    <path class="cls-1" d="m350.58,275.37c0,3.38,1.55,5.78,9.87,5.78h.85v4.79h-34.67v-4.79h.85c8.32,0,9.87-2.25,9.87-5.64v-45.39c0-3.52-1.69-5.64-10.71-5.64v-4.79l23.96-.85v56.52Zm-8.18-69.77c-4.37,0-7.89-3.38-7.89-7.89s3.52-7.89,7.89-7.89,7.89,3.38,7.89,7.89-3.52,7.89-7.89,7.89Z"/>
    <path class="cls-1" d="m384.41,229.85h.28c4.37-7.75,10.15-11.84,18.04-11.84,17.9,0,30.45,14.94,30.45,33.97s-14.94,35.66-33.27,35.66c-11.42,0-17.48-7.61-20.72-7.61-2.82,0-3.95,3.24-5.07,5.64l-4.79.57c1.55-7.47,1.83-11.56,1.83-14.52v-71.32c0-3.81-1.83-5.78-9.87-5.78v-4.79l23.12-.85v40.88Zm34.39,23.4c0-19.59-6.06-30.45-17.34-30.45-6.2,0-11.7,4.51-14.66,13.81-1.69,5.22-2.4,9.02-2.4,19.87,0,5.78.14,10.43.99,13.95,2.4,10.57,8.74,12.4,15.08,12.4,11.7,0,18.32-10.57,18.32-29.6Z"/>
    <path class="cls-1" d="m462.49,275.52c0,3.52,1.69,5.64,10.71,5.64v4.79h-34.67v-4.79c9.02,0,10.71-2.12,10.71-5.64v-75.27c0-3.52-1.69-5.64-10.71-5.64v-4.79l23.96-.85v86.55Z"/>
    <path class="cls-1" d="m498.86,275.37c0,3.38,1.55,5.78,9.87,5.78h.85v4.79h-34.67v-4.79h.85c8.32,0,9.87-2.25,9.87-5.64v-45.39c0-3.52-1.69-5.64-10.71-5.64v-4.79l23.96-.85v56.52Zm-8.18-69.77c-4.37,0-7.89-3.38-7.89-7.89s3.52-7.89,7.89-7.89,7.89,3.38,7.89,7.89-3.52,7.89-7.89,7.89Z"/>
    <path class="cls-1" d="m548.19,287.64c-19.45,0-34.25-14.94-34.25-34.82s14.66-34.81,34.25-34.81,34.25,15.22,34.25,34.81-14.52,34.82-34.25,34.82Zm19.03-34.82c0-20.16-5.5-30.02-19.17-30.02-12.54,0-18.89,8.6-18.89,30.02s5.64,30.02,19.03,30.02,19.03-9.59,19.03-30.02Z"/>
    <path class="cls-1" d="m608.37,197.71v21.99h19.59v4.79h-19.59v51.17c0,5.5,3.38,7.19,7.75,7.19,4.79,0,9.59-3.24,10.15-12.55.14-1.83.14-3.81.14-5.64h3.95v2.25c0,14.8-5.36,20.72-17.76,20.72s-17.48-6.2-17.48-16.91v-46.23h-10.29v-4.79c12.54-1.13,14.8-3.95,18.46-21.99h5.07Z"/>
    <path class="cls-1" d="m653.61,232.1h.28c3.81-8.6,10.43-14.1,20.44-14.1,13.67,0,21,9.58,21,25.09v32.28c0,3.81,1.69,5.78,10.01,5.78v4.79h-23.26v-47.64c0-8.88-3.95-14.66-11.28-14.66-10.29,0-17.2,12.97-17.2,23.4v28.33c0,3.81,1.83,5.78,10.99,5.78v4.79h-34.25v-4.79c8.32,0,10.01-1.97,10.01-5.78v-74.99c0-3.81-1.69-5.78-10.01-5.78v-4.79l23.26-.85v43.13Z"/>
    <path class="cls-1" d="m724.23,252.4c0,19.73,8.46,30.45,20.44,30.45,9.58,0,15.65-5.78,21.14-12.97l3.38,2.25c-7.33,10.99-16.21,15.5-29.04,15.5-17.62,0-31.15-16.07-31.15-34.82s13.39-34.81,31.01-34.81,29.88,12.68,29.88,34.39h-45.67Zm27.48-41.16h-5.64l-21.43-13.67c-3.38-2.12-4.51-4.09-4.51-5.92,0-2.68,1.41-4.65,4.79-4.65,1.83,0,3.1.28,6.06,3.24l20.72,21Zm3.81,36.37c0-16.21-5.21-24.81-15.93-24.81-9.58,0-15.36,7.75-15.36,24.81h31.29Z"/>
    <path class="cls-1" d="m830.64,219.7h4.09v81.33c0,3.81,1.83,5.78,11,5.78v4.79h-35.1v-4.79c9.02,0,10.85-1.97,10.85-5.78v-22.41h-.42c-4.51,6.62-8.46,9.02-16.77,9.02-18.04,0-29.6-13.95-29.6-34.96,0-19.03,16.21-34.67,31.29-34.67,10.85,0,15.65,7.89,18.61,7.89,2.25,0,5.07-3.81,6.06-6.2Zm-9.16,32.7c0-21-5.22-29.6-15.93-29.6s-15.65,8.74-15.65,29.6,5.36,30.45,15.79,30.45c9.87,0,15.79-7.61,15.79-30.45Z"/>
    <path class="cls-1" d="m864.47,219.7v49.19c0,7.19,2.82,13.11,10.57,13.11,9.73,0,16.21-8.03,17.9-20.02v-31.71c0-3.67-1.69-5.78-10.15-5.78h-.85v-4.79h24.24v55.68c0,3.81,1.83,5.78,9.87,5.78v4.79l-21.99.85v-13.25h-.28c-5.22,8.88-11.84,14.1-21.57,14.1-13.11,0-21-9.3-21-24.95v-32.42c0-3.81-1.69-5.78-10.01-5.78v-4.79h23.26Z"/>
    <path class="cls-1" d="m935.08,252.4c0,19.73,8.46,30.45,20.44,30.45,9.58,0,15.65-5.78,21.14-12.97l3.38,2.25c-7.33,10.99-16.21,15.5-29.04,15.5-17.62,0-31.15-16.07-31.15-34.82s13.39-34.81,31.01-34.81,29.88,12.68,29.88,34.39h-45.67Zm31.29-4.79c0-16.21-5.21-24.81-15.93-24.81-9.58,0-15.36,7.75-15.36,24.81h31.29Z"/>
    <path class="cls-1" d="m1032.48,219.13h4.79v20.58h-4.79c-4.79-12.54-11.13-16.91-21.43-16.91-7.75,0-12.83,3.52-12.83,9.58s4.93,8.88,15.65,11.42c5.07,1.27,9.58,2.26,13.11,3.52,11,3.95,14.52,9.73,14.52,17.48,0,14.38-11.42,22.83-26.22,22.83-12.68,0-16.91-5.36-21-5.36-2.54,0-3.24,2.82-3.81,4.51h-3.95v-24.24h3.95c2.96,11.98,12.12,20.3,24.67,20.3,7.47,0,15.08-4.65,15.08-11.7s-5.22-10.29-15.22-12.97c-7.75-2.12-13.53-3.38-17.9-5.5-7.05-3.38-10.15-8.18-10.15-15.08,0-11.7,10.29-19.59,23.96-19.59,11.56,0,16.21,4.79,18.32,4.79,2.26,0,2.96-2.11,3.24-3.67Z"/>
  </g>
</svg>