<svg width="802" height="130" viewBox="0 0 802 130" fill="none" xmlns="http://www.w3.org/2000/svg">
<rect width="802" height="130" fill="#FFDF8E"/>
<path d="M188.295 74V50.7273H197.023C198.811 50.7273 200.311 51.0379 201.523 51.6591C202.742 52.2803 203.663 53.1515 204.284 54.2727C204.913 55.3864 205.227 56.6856 205.227 58.1705C205.227 59.6629 204.909 60.9583 204.273 62.0568C203.644 63.1477 202.716 63.9924 201.489 64.5909C200.261 65.1818 198.754 65.4773 196.966 65.4773H190.75V61.9773H196.398C197.443 61.9773 198.299 61.8333 198.966 61.5455C199.633 61.25 200.125 60.822 200.443 60.2614C200.769 59.6932 200.932 58.9962 200.932 58.1705C200.932 57.3447 200.769 56.6402 200.443 56.0568C200.117 55.4659 199.621 55.0189 198.955 54.7159C198.288 54.4053 197.428 54.25 196.375 54.25H192.511V74H188.295ZM200.318 63.4545L206.08 74H201.375L195.716 63.4545H200.318ZM216.403 74.3409C214.653 74.3409 213.142 73.9773 211.869 73.25C210.604 72.5152 209.631 71.4773 208.949 70.1364C208.267 68.7879 207.926 67.2008 207.926 65.375C207.926 63.5795 208.267 62.0038 208.949 60.6477C209.638 59.2841 210.6 58.2235 211.835 57.4659C213.07 56.7008 214.521 56.3182 216.188 56.3182C217.263 56.3182 218.278 56.4924 219.233 56.8409C220.195 57.1818 221.044 57.7121 221.778 58.4318C222.521 59.1515 223.104 60.0682 223.528 61.1818C223.953 62.2879 224.165 63.6061 224.165 65.1364V66.3977H209.858V63.625H220.222C220.214 62.8371 220.044 62.1364 219.71 61.5227C219.377 60.9015 218.911 60.4129 218.312 60.0568C217.722 59.7008 217.032 59.5227 216.244 59.5227C215.403 59.5227 214.665 59.7273 214.028 60.1364C213.392 60.5379 212.896 61.0682 212.54 61.7273C212.191 62.3788 212.013 63.0947 212.006 63.875V66.2955C212.006 67.3106 212.191 68.1818 212.562 68.9091C212.934 69.6288 213.453 70.1818 214.119 70.5682C214.786 70.947 215.566 71.1364 216.46 71.1364C217.059 71.1364 217.6 71.053 218.085 70.8864C218.57 70.7121 218.991 70.4583 219.347 70.125C219.703 69.7917 219.972 69.3788 220.153 68.8864L223.994 69.3182C223.752 70.3333 223.29 71.2197 222.608 71.9773C221.934 72.7273 221.07 73.3106 220.017 73.7273C218.964 74.1364 217.759 74.3409 216.403 74.3409ZM231.759 63.7727V74H227.645V56.5455H231.577V59.5114H231.781C232.183 58.5341 232.823 57.7576 233.702 57.1818C234.588 56.6061 235.683 56.3182 236.986 56.3182C238.19 56.3182 239.24 56.5758 240.134 57.0909C241.035 57.6061 241.732 58.3523 242.224 59.3295C242.724 60.3068 242.971 61.4924 242.963 62.8864V74H238.849V63.5227C238.849 62.3561 238.546 61.4432 237.94 60.7841C237.342 60.125 236.512 59.7955 235.452 59.7955C234.732 59.7955 234.092 59.9545 233.531 60.2727C232.978 60.5833 232.543 61.0341 232.224 61.625C231.914 62.2159 231.759 62.9318 231.759 63.7727ZM254.759 74.3409C253.016 74.3409 251.52 73.9583 250.27 73.1932C249.027 72.428 248.069 71.3712 247.395 70.0227C246.728 68.6667 246.395 67.1061 246.395 65.3409C246.395 63.5682 246.736 62.0038 247.418 60.6477C248.099 59.2841 249.062 58.2235 250.304 57.4659C251.554 56.7008 253.031 56.3182 254.736 56.3182C256.152 56.3182 257.406 56.5795 258.497 57.1023C259.596 57.6174 260.471 58.3485 261.122 59.2955C261.774 60.2348 262.145 61.3333 262.236 62.5909H258.304C258.145 61.75 257.766 61.0492 257.168 60.4886C256.577 59.9205 255.785 59.6364 254.793 59.6364C253.952 59.6364 253.213 59.8636 252.577 60.3182C251.94 60.7652 251.444 61.4091 251.088 62.25C250.74 63.0909 250.565 64.0985 250.565 65.2727C250.565 66.4621 250.74 67.4848 251.088 68.3409C251.437 69.1894 251.925 69.8447 252.554 70.3068C253.19 70.7614 253.937 70.9886 254.793 70.9886C255.399 70.9886 255.94 70.875 256.418 70.6477C256.902 70.4129 257.308 70.0758 257.634 69.6364C257.959 69.197 258.183 68.6629 258.304 68.0341H262.236C262.137 69.2689 261.774 70.3636 261.145 71.3182C260.516 72.2652 259.66 73.0076 258.577 73.5455C257.493 74.0758 256.221 74.3409 254.759 74.3409ZM273.227 74.3409C271.523 74.3409 270.045 73.9659 268.795 73.2159C267.545 72.4659 266.576 71.4167 265.886 70.0682C265.205 68.7197 264.864 67.1439 264.864 65.3409C264.864 63.5379 265.205 61.9583 265.886 60.6023C266.576 59.2462 267.545 58.1932 268.795 57.4432C270.045 56.6932 271.523 56.3182 273.227 56.3182C274.932 56.3182 276.409 56.6932 277.659 57.4432C278.909 58.1932 279.875 59.2462 280.557 60.6023C281.246 61.9583 281.591 63.5379 281.591 65.3409C281.591 67.1439 281.246 68.7197 280.557 70.0682C279.875 71.4167 278.909 72.4659 277.659 73.2159C276.409 73.9659 274.932 74.3409 273.227 74.3409ZM273.25 71.0455C274.174 71.0455 274.947 70.7917 275.568 70.2841C276.189 69.7689 276.652 69.0795 276.955 68.2159C277.265 67.3523 277.42 66.3902 277.42 65.3295C277.42 64.2614 277.265 63.2955 276.955 62.4318C276.652 61.5606 276.189 60.8674 275.568 60.3523C274.947 59.8371 274.174 59.5795 273.25 59.5795C272.303 59.5795 271.515 59.8371 270.886 60.3523C270.265 60.8674 269.799 61.5606 269.489 62.4318C269.186 63.2955 269.034 64.2614 269.034 65.3295C269.034 66.3902 269.186 67.3523 269.489 68.2159C269.799 69.0795 270.265 69.7689 270.886 70.2841C271.515 70.7917 272.303 71.0455 273.25 71.0455ZM289.196 63.7727V74H285.082V56.5455H289.014V59.5114H289.219C289.62 58.5341 290.26 57.7576 291.139 57.1818C292.026 56.6061 293.12 56.3182 294.423 56.3182C295.628 56.3182 296.677 56.5758 297.571 57.0909C298.473 57.6061 299.17 58.3523 299.662 59.3295C300.162 60.3068 300.408 61.4924 300.401 62.8864V74H296.287V63.5227C296.287 62.3561 295.984 61.4432 295.378 60.7841C294.779 60.125 293.95 59.7955 292.889 59.7955C292.17 59.7955 291.529 59.9545 290.969 60.2727C290.416 60.5833 289.98 61.0341 289.662 61.625C289.351 62.2159 289.196 62.9318 289.196 63.7727ZM313.298 56.5455V59.7273H303.264V56.5455H313.298ZM305.741 52.3636H309.855V68.75C309.855 69.303 309.938 69.7273 310.105 70.0227C310.279 70.3106 310.507 70.5076 310.787 70.6136C311.067 70.7197 311.378 70.7727 311.719 70.7727C311.976 70.7727 312.211 70.7538 312.423 70.7159C312.643 70.678 312.81 70.6439 312.923 70.6136L313.616 73.8295C313.397 73.9053 313.082 73.9886 312.673 74.0795C312.272 74.1705 311.779 74.2235 311.196 74.2386C310.166 74.2689 309.238 74.1136 308.412 73.7727C307.586 73.4242 306.931 72.8864 306.446 72.1591C305.969 71.4318 305.734 70.5227 305.741 69.4318V52.3636ZM316.739 74V56.5455H320.727V59.4545H320.909C321.227 58.447 321.773 57.6705 322.545 57.125C323.326 56.572 324.216 56.2955 325.216 56.2955C325.443 56.2955 325.697 56.3068 325.977 56.3295C326.265 56.3447 326.504 56.3712 326.693 56.4091V60.1932C326.519 60.1326 326.242 60.0795 325.864 60.0341C325.492 59.9811 325.133 59.9545 324.784 59.9545C324.034 59.9545 323.36 60.1174 322.761 60.4432C322.17 60.7614 321.705 61.2045 321.364 61.7727C321.023 62.3409 320.852 62.9962 320.852 63.7386V74H316.739ZM336.435 74.3409C334.685 74.3409 333.173 73.9773 331.901 73.25C330.635 72.5152 329.662 71.4773 328.98 70.1364C328.298 68.7879 327.957 67.2008 327.957 65.375C327.957 63.5795 328.298 62.0038 328.98 60.6477C329.67 59.2841 330.632 58.2235 331.866 57.4659C333.101 56.7008 334.552 56.3182 336.219 56.3182C337.295 56.3182 338.31 56.4924 339.264 56.8409C340.226 57.1818 341.075 57.7121 341.81 58.4318C342.552 59.1515 343.135 60.0682 343.56 61.1818C343.984 62.2879 344.196 63.6061 344.196 65.1364V66.3977H329.889V63.625H340.253C340.245 62.8371 340.075 62.1364 339.741 61.5227C339.408 60.9015 338.942 60.4129 338.344 60.0568C337.753 59.7008 337.063 59.5227 336.276 59.5227C335.435 59.5227 334.696 59.7273 334.06 60.1364C333.423 60.5379 332.927 61.0682 332.571 61.7273C332.223 62.3788 332.045 63.0947 332.037 63.875V66.2955C332.037 67.3106 332.223 68.1818 332.594 68.9091C332.965 69.6288 333.484 70.1818 334.151 70.5682C334.817 70.947 335.598 71.1364 336.491 71.1364C337.09 71.1364 337.632 71.053 338.116 70.8864C338.601 70.7121 339.022 70.4583 339.378 70.125C339.734 69.7917 340.003 69.3788 340.185 68.8864L344.026 69.3182C343.783 70.3333 343.321 71.2197 342.639 71.9773C341.965 72.7273 341.101 73.3106 340.048 73.7273C338.995 74.1364 337.791 74.3409 336.435 74.3409ZM347.676 74V56.5455H351.665V59.4545H351.847C352.165 58.447 352.71 57.6705 353.483 57.125C354.263 56.572 355.153 56.2955 356.153 56.2955C356.381 56.2955 356.634 56.3068 356.915 56.3295C357.203 56.3447 357.441 56.3712 357.631 56.4091V60.1932C357.456 60.1326 357.18 60.0795 356.801 60.0341C356.43 59.9811 356.07 59.9545 355.722 59.9545C354.972 59.9545 354.297 60.1174 353.699 60.4432C353.108 60.7614 352.642 61.2045 352.301 61.7727C351.96 62.3409 351.79 62.9962 351.79 63.7386V74H347.676ZM379.426 66.6591V56.5455H383.54V74H379.551V70.8977H379.369C378.975 71.875 378.328 72.6742 377.426 73.2955C376.532 73.9167 375.43 74.2273 374.119 74.2273C372.975 74.2273 371.964 73.9735 371.085 73.4659C370.214 72.9508 369.532 72.2045 369.04 71.2273C368.547 70.2424 368.301 69.053 368.301 67.6591V56.5455H372.415V67.0227C372.415 68.1288 372.718 69.0076 373.324 69.6591C373.93 70.3106 374.725 70.6364 375.71 70.6364C376.316 70.6364 376.903 70.4886 377.472 70.1932C378.04 69.8977 378.506 69.4583 378.869 68.875C379.241 68.2841 379.426 67.5455 379.426 66.6591ZM391.884 63.7727V74H387.77V56.5455H391.702V59.5114H391.906C392.308 58.5341 392.948 57.7576 393.827 57.1818C394.713 56.6061 395.808 56.3182 397.111 56.3182C398.315 56.3182 399.365 56.5758 400.259 57.0909C401.16 57.6061 401.857 58.3523 402.349 59.3295C402.849 60.3068 403.096 61.4924 403.088 62.8864V74H398.974V63.5227C398.974 62.3561 398.671 61.4432 398.065 60.7841C397.467 60.125 396.637 59.7955 395.577 59.7955C394.857 59.7955 394.217 59.9545 393.656 60.2727C393.103 60.5833 392.668 61.0341 392.349 61.625C392.039 62.2159 391.884 62.9318 391.884 63.7727ZM423.923 56.5455V59.7273H413.889V56.5455H423.923ZM416.366 52.3636H420.48V68.75C420.48 69.303 420.563 69.7273 420.73 70.0227C420.904 70.3106 421.132 70.5076 421.412 70.6136C421.692 70.7197 422.003 70.7727 422.344 70.7727C422.601 70.7727 422.836 70.7538 423.048 70.7159C423.268 70.678 423.435 70.6439 423.548 70.6136L424.241 73.8295C424.022 73.9053 423.707 73.9886 423.298 74.0795C422.897 74.1705 422.404 74.2235 421.821 74.2386C420.791 74.2689 419.863 74.1136 419.037 73.7727C418.211 73.4242 417.556 72.8864 417.071 72.1591C416.594 71.4318 416.359 70.5227 416.366 69.4318V52.3636ZM434.903 74.3409C433.153 74.3409 431.642 73.9773 430.369 73.25C429.104 72.5152 428.131 71.4773 427.449 70.1364C426.767 68.7879 426.426 67.2008 426.426 65.375C426.426 63.5795 426.767 62.0038 427.449 60.6477C428.138 59.2841 429.1 58.2235 430.335 57.4659C431.57 56.7008 433.021 56.3182 434.688 56.3182C435.763 56.3182 436.778 56.4924 437.733 56.8409C438.695 57.1818 439.544 57.7121 440.278 58.4318C441.021 59.1515 441.604 60.0682 442.028 61.1818C442.453 62.2879 442.665 63.6061 442.665 65.1364V66.3977H428.358V63.625H438.722C438.714 62.8371 438.544 62.1364 438.21 61.5227C437.877 60.9015 437.411 60.4129 436.812 60.0568C436.222 59.7008 435.532 59.5227 434.744 59.5227C433.903 59.5227 433.165 59.7273 432.528 60.1364C431.892 60.5379 431.396 61.0682 431.04 61.7273C430.691 62.3788 430.513 63.0947 430.506 63.875V66.2955C430.506 67.3106 430.691 68.1818 431.062 68.9091C431.434 69.6288 431.953 70.1818 432.619 70.5682C433.286 70.947 434.066 71.1364 434.96 71.1364C435.559 71.1364 436.1 71.053 436.585 70.8864C437.07 70.7121 437.491 70.4583 437.847 70.125C438.203 69.7917 438.472 69.3788 438.653 68.8864L442.494 69.3182C442.252 70.3333 441.79 71.2197 441.108 71.9773C440.434 72.7273 439.57 73.3106 438.517 73.7273C437.464 74.1364 436.259 74.3409 434.903 74.3409ZM453.759 74.3409C452.016 74.3409 450.52 73.9583 449.27 73.1932C448.027 72.428 447.069 71.3712 446.395 70.0227C445.728 68.6667 445.395 67.1061 445.395 65.3409C445.395 63.5682 445.736 62.0038 446.418 60.6477C447.099 59.2841 448.062 58.2235 449.304 57.4659C450.554 56.7008 452.031 56.3182 453.736 56.3182C455.152 56.3182 456.406 56.5795 457.497 57.1023C458.596 57.6174 459.471 58.3485 460.122 59.2955C460.774 60.2348 461.145 61.3333 461.236 62.5909H457.304C457.145 61.75 456.766 61.0492 456.168 60.4886C455.577 59.9205 454.785 59.6364 453.793 59.6364C452.952 59.6364 452.213 59.8636 451.577 60.3182C450.94 60.7652 450.444 61.4091 450.088 62.25C449.74 63.0909 449.565 64.0985 449.565 65.2727C449.565 66.4621 449.74 67.4848 450.088 68.3409C450.437 69.1894 450.925 69.8447 451.554 70.3068C452.19 70.7614 452.937 70.9886 453.793 70.9886C454.399 70.9886 454.94 70.875 455.418 70.6477C455.902 70.4129 456.308 70.0758 456.634 69.6364C456.959 69.197 457.183 68.6629 457.304 68.0341H461.236C461.137 69.2689 460.774 70.3636 460.145 71.3182C459.516 72.2652 458.66 73.0076 457.577 73.5455C456.493 74.0758 455.221 74.3409 453.759 74.3409ZM468.727 63.7727V74H464.614V50.7273H468.636V59.5114H468.841C469.25 58.5265 469.883 57.75 470.739 57.1818C471.602 56.6061 472.701 56.3182 474.034 56.3182C475.246 56.3182 476.303 56.572 477.205 57.0795C478.106 57.5871 478.803 58.3295 479.295 59.3068C479.795 60.2841 480.045 61.4773 480.045 62.8864V74H475.932V63.5227C475.932 62.3485 475.629 61.4356 475.023 60.7841C474.424 60.125 473.583 59.7955 472.5 59.7955C471.773 59.7955 471.121 59.9545 470.545 60.2727C469.977 60.5833 469.53 61.0341 469.205 61.625C468.886 62.2159 468.727 62.9318 468.727 63.7727ZM488.352 63.7727V74H484.239V56.5455H488.17V59.5114H488.375C488.777 58.5341 489.417 57.7576 490.295 57.1818C491.182 56.6061 492.277 56.3182 493.58 56.3182C494.784 56.3182 495.833 56.5758 496.727 57.0909C497.629 57.6061 498.326 58.3523 498.818 59.3295C499.318 60.3068 499.564 61.4924 499.557 62.8864V74H495.443V63.5227C495.443 62.3561 495.14 61.4432 494.534 60.7841C493.936 60.125 493.106 59.7955 492.045 59.7955C491.326 59.7955 490.686 59.9545 490.125 60.2727C489.572 60.5833 489.136 61.0341 488.818 61.625C488.508 62.2159 488.352 62.9318 488.352 63.7727ZM503.739 74V56.5455H507.852V74H503.739ZM505.807 54.0682C505.155 54.0682 504.595 53.8523 504.125 53.4205C503.655 52.9811 503.42 52.4545 503.42 51.8409C503.42 51.2197 503.655 50.6932 504.125 50.2614C504.595 49.822 505.155 49.6023 505.807 49.6023C506.466 49.6023 507.027 49.822 507.489 50.2614C507.958 50.6932 508.193 51.2197 508.193 51.8409C508.193 52.4545 507.958 52.9811 507.489 53.4205C507.027 53.8523 506.466 54.0682 505.807 54.0682ZM519.696 74.3409C517.954 74.3409 516.457 73.9583 515.207 73.1932C513.965 72.428 513.007 71.3712 512.332 70.0227C511.666 68.6667 511.332 67.1061 511.332 65.3409C511.332 63.5682 511.673 62.0038 512.355 60.6477C513.037 59.2841 513.999 58.2235 515.241 57.4659C516.491 56.7008 517.969 56.3182 519.673 56.3182C521.09 56.3182 522.344 56.5795 523.435 57.1023C524.533 57.6174 525.408 58.3485 526.06 59.2955C526.711 60.2348 527.082 61.3333 527.173 62.5909H523.241C523.082 61.75 522.704 61.0492 522.105 60.4886C521.514 59.9205 520.723 59.6364 519.73 59.6364C518.889 59.6364 518.151 59.8636 517.514 60.3182C516.878 60.7652 516.382 61.4091 516.026 62.25C515.677 63.0909 515.503 64.0985 515.503 65.2727C515.503 66.4621 515.677 67.4848 516.026 68.3409C516.374 69.1894 516.863 69.8447 517.491 70.3068C518.128 70.7614 518.874 70.9886 519.73 70.9886C520.336 70.9886 520.878 70.875 521.355 70.6477C521.84 70.4129 522.245 70.0758 522.571 69.6364C522.897 69.197 523.12 68.6629 523.241 68.0341H527.173C527.075 69.2689 526.711 70.3636 526.082 71.3182C525.454 72.2652 524.598 73.0076 523.514 73.5455C522.431 74.0758 521.158 74.3409 519.696 74.3409ZM530.551 74V56.5455H534.665V74H530.551ZM532.619 54.0682C531.968 54.0682 531.407 53.8523 530.938 53.4205C530.468 52.9811 530.233 52.4545 530.233 51.8409C530.233 51.2197 530.468 50.6932 530.938 50.2614C531.407 49.822 531.968 49.6023 532.619 49.6023C533.278 49.6023 533.839 49.822 534.301 50.2614C534.771 50.6932 535.006 51.2197 535.006 51.8409C535.006 52.4545 534.771 52.9811 534.301 53.4205C533.839 53.8523 533.278 54.0682 532.619 54.0682ZM546.622 74.3409C544.872 74.3409 543.361 73.9773 542.088 73.25C540.823 72.5152 539.849 71.4773 539.168 70.1364C538.486 68.7879 538.145 67.2008 538.145 65.375C538.145 63.5795 538.486 62.0038 539.168 60.6477C539.857 59.2841 540.819 58.2235 542.054 57.4659C543.289 56.7008 544.74 56.3182 546.406 56.3182C547.482 56.3182 548.497 56.4924 549.452 56.8409C550.414 57.1818 551.262 57.7121 551.997 58.4318C552.74 59.1515 553.323 60.0682 553.747 61.1818C554.171 62.2879 554.384 63.6061 554.384 65.1364V66.3977H540.077V63.625H550.44C550.433 62.8371 550.262 62.1364 549.929 61.5227C549.596 60.9015 549.13 60.4129 548.531 60.0568C547.94 59.7008 547.251 59.5227 546.463 59.5227C545.622 59.5227 544.884 59.7273 544.247 60.1364C543.611 60.5379 543.115 61.0682 542.759 61.7273C542.41 62.3788 542.232 63.0947 542.224 63.875V66.2955C542.224 67.3106 542.41 68.1818 542.781 68.9091C543.152 69.6288 543.671 70.1818 544.338 70.5682C545.005 70.947 545.785 71.1364 546.679 71.1364C547.277 71.1364 547.819 71.053 548.304 70.8864C548.789 70.7121 549.209 70.4583 549.565 70.125C549.921 69.7917 550.19 69.3788 550.372 68.8864L554.213 69.3182C553.971 70.3333 553.509 71.2197 552.827 71.9773C552.152 72.7273 551.289 73.3106 550.236 73.7273C549.183 74.1364 547.978 74.3409 546.622 74.3409ZM561.977 63.7727V74H557.864V56.5455H561.795V59.5114H562C562.402 58.5341 563.042 57.7576 563.92 57.1818C564.807 56.6061 565.902 56.3182 567.205 56.3182C568.409 56.3182 569.458 56.5758 570.352 57.0909C571.254 57.6061 571.951 58.3523 572.443 59.3295C572.943 60.3068 573.189 61.4924 573.182 62.8864V74H569.068V63.5227C569.068 62.3561 568.765 61.4432 568.159 60.7841C567.561 60.125 566.731 59.7955 565.67 59.7955C564.951 59.7955 564.311 59.9545 563.75 60.2727C563.197 60.5833 562.761 61.0341 562.443 61.625C562.133 62.2159 561.977 62.9318 561.977 63.7727Z" fill="black"/>
<path d="M752.292 92.584C744.789 92.584 737.591 89.6025 732.286 84.298C726.981 78.9932 724 71.7952 724 64.292C724 56.7888 726.982 49.5913 732.286 44.286C737.591 38.9812 744.789 36 752.292 36C759.795 36 766.993 38.9815 772.298 44.286C777.603 49.5907 780.584 56.7888 780.584 64.292C780.576 71.7924 777.592 78.985 772.287 84.2869C766.985 89.5916 759.792 92.5756 752.292 92.584ZM752.292 40.3526C745.943 40.3526 739.855 42.8744 735.363 47.3628C730.874 51.8541 728.353 57.9421 728.353 64.292C728.353 70.6419 730.874 76.7293 735.363 81.2212C739.854 85.7099 745.942 88.2314 752.292 88.2314C758.642 88.2314 764.729 85.7096 769.221 81.2212C773.71 76.7299 776.231 70.6419 776.231 64.292C776.223 57.9453 773.699 51.8595 769.213 47.3711C764.724 42.8852 758.638 40.361 752.292 40.3526Z" fill="black"/>
<path d="M754.659 77.6166L751.623 74.499L761.764 64.6349L751.894 54.4937L755.017 51.4577L767.917 64.7168L754.659 77.6166Z" fill="black"/>
<path d="M737.602 66.4307L737.607 62.0781L764.811 62.1161L764.805 66.4688L737.602 66.4307Z" fill="black"/>
<path d="M115.156 45.5194C119.737 45.5194 123.465 41.8135 123.465 37.2597C123.465 32.7059 119.737 29 115.156 29C110.575 29 106.847 32.7059 106.847 37.2597C106.739 41.8135 110.467 45.5194 115.156 45.5194ZM115.156 32.5985C117.71 32.5985 119.737 34.7162 119.737 37.1524C119.737 39.5885 117.607 41.7062 115.156 41.7062C112.705 41.7062 110.575 39.5885 110.575 37.1524C110.575 34.7162 112.597 32.5985 115.156 32.5985ZM140.077 66.3773H129.959C128.149 51.9751 120.905 48.9066 115.156 48.9066C109.298 48.9066 102.163 51.9755 100.353 66.3773H94.9195C91.0834 59.4949 85.654 57.5882 80.8612 57.5882C76.1765 57.5882 70.6346 59.3874 66.803 66.3773H53.8098C52.7447 66.3773 52 67.2252 52 68.1765C52 69.2353 52.8529 69.9757 53.8098 69.9757H65.102C63.7165 73.574 62.6514 78.2354 62.2271 84.1618C62.2271 84.3728 62.2271 84.5837 62.3353 84.7988C62.1231 85.6467 62.5474 86.598 63.4004 87.024C68.938 89.2493 74.7959 90.4114 80.8659 90.4114C86.9359 90.4114 92.7939 89.245 98.3314 87.024C99.1843 86.7056 99.6086 85.7543 99.3965 84.7988C99.5046 84.5879 99.5046 84.3769 99.5046 84.1618C98.9721 78.2307 98.0152 73.6811 96.6297 69.9757H140.19C141.255 69.9757 142 69.1278 142 68.1765C141.996 67.2252 141.142 66.3773 140.077 66.3773ZM65.9441 84.1667C66.5848 77.4952 67.8621 72.2009 69.9923 68.3923C72.5468 63.6275 76.1707 61.4023 80.8553 61.4023C85.6482 61.4023 89.1639 63.7309 91.7182 68.3923C93.8484 72.2058 95.1257 77.4999 95.7664 84.1667C90.9735 85.9659 85.9684 86.8138 80.855 86.8138C75.7459 86.8138 70.737 85.9659 65.9441 84.1667ZM115.155 52.6125C121.225 52.6125 124.953 57.2697 126.23 66.3773H104.075C105.248 57.2697 108.977 52.6125 115.155 52.6125ZM99.3903 95.1764C99.8147 96.1277 99.2822 97.1865 98.3252 97.6126C92.7876 99.8378 86.9297 101 80.8597 101C74.7895 101 68.9317 99.8336 63.3942 97.6126C62.4373 97.1907 62.0087 96.1319 62.3291 95.1764C62.7535 94.2251 63.8186 93.7991 64.7797 94.1176C69.893 96.2353 75.3225 97.2941 80.8648 97.2941C86.4025 97.2941 91.8364 96.2353 96.95 94.1176C97.8986 93.7991 98.9637 94.3285 99.3923 95.1764H99.3903ZM80.8555 53.7741C86.5014 53.7741 90.9739 49.2203 90.9739 43.7152C90.9739 38.1025 86.3931 33.6563 80.8555 33.6563C75.2096 33.6563 70.737 38.2101 70.737 43.7152C70.633 49.2244 75.2137 53.7741 80.8555 53.7741ZM80.8555 37.2584C84.3712 37.2584 87.2461 40.1164 87.2461 43.6114C87.2461 47.1064 84.3712 49.9644 80.8555 49.9644C77.3398 49.9644 74.4649 47.1064 74.4649 43.6114C74.3609 40.224 77.3439 37.2584 80.8555 37.2584Z" fill="black"/>
</svg>
