<svg width="802" height="130" viewBox="0 0 802 130" fill="none" xmlns="http://www.w3.org/2000/svg">
<path d="M559.292 103.584C551.789 103.584 544.591 100.602 539.286 95.298C533.981 89.9932 531 82.7952 531 75.292C531 67.7888 533.982 60.5913 539.286 55.286C544.591 49.9812 551.789 47 559.292 47C566.795 47 573.993 49.9815 579.298 55.286C584.603 60.5907 587.584 67.7888 587.584 75.292C587.576 82.7924 584.592 89.985 579.287 95.2869C573.985 100.592 566.792 103.576 559.292 103.584ZM559.292 51.3526C552.943 51.3526 546.855 53.8744 542.363 58.3628C537.874 62.8541 535.353 68.9421 535.353 75.292C535.353 81.6419 537.874 87.7293 542.363 92.2212C546.854 96.7099 552.942 99.2314 559.292 99.2314C565.642 99.2314 571.729 96.7096 576.221 92.2212C580.71 87.7299 583.231 81.6419 583.231 75.292C583.223 68.9453 580.699 62.8595 576.213 58.3711C571.724 53.8852 565.638 51.361 559.292 51.3526Z" fill="black"/>
<path d="M561.659 88.6166L558.623 85.499L568.764 75.6349L558.894 65.4937L562.017 62.4577L574.917 75.7168L561.659 88.6166Z" fill="black"/>
<path d="M544.602 77.4307L544.607 73.0781L571.811 73.1161L571.805 77.4688L544.602 77.4307Z" fill="black"/>
<rect width="802" height="130" fill="#33E296"/>
<path d="M208.216 59.5795H203.966C203.845 58.8826 203.621 58.2652 203.295 57.7273C202.97 57.1818 202.564 56.7197 202.08 56.3409C201.595 55.9621 201.042 55.678 200.42 55.4886C199.807 55.2917 199.144 55.1932 198.432 55.1932C197.167 55.1932 196.045 55.5114 195.068 56.1477C194.091 56.7765 193.326 57.7008 192.773 58.9205C192.22 60.1326 191.943 61.6136 191.943 63.3636C191.943 65.1439 192.22 66.6439 192.773 67.8636C193.333 69.0758 194.098 69.9924 195.068 70.6136C196.045 71.2273 197.163 71.5341 198.42 71.5341C199.117 71.5341 199.769 71.4432 200.375 71.2614C200.989 71.072 201.538 70.7955 202.023 70.4318C202.515 70.0682 202.928 69.6212 203.261 69.0909C203.602 68.5606 203.837 67.9545 203.966 67.2727L208.216 67.2955C208.057 68.4015 207.712 69.4394 207.182 70.4091C206.659 71.3788 205.973 72.2348 205.125 72.9773C204.277 73.7121 203.284 74.2879 202.148 74.7045C201.011 75.1136 199.75 75.3182 198.364 75.3182C196.318 75.3182 194.492 74.8447 192.886 73.8977C191.28 72.9508 190.015 71.5833 189.091 69.7955C188.167 68.0076 187.705 65.8636 187.705 63.3636C187.705 60.8561 188.17 58.7121 189.102 56.9318C190.034 55.1439 191.303 53.7765 192.909 52.8295C194.515 51.8826 196.333 51.4091 198.364 51.4091C199.659 51.4091 200.864 51.5909 201.977 51.9545C203.091 52.3182 204.083 52.8523 204.955 53.5568C205.826 54.2538 206.542 55.1098 207.102 56.125C207.67 57.1326 208.042 58.2841 208.216 59.5795ZM219.509 75.3409C217.804 75.3409 216.327 74.9659 215.077 74.2159C213.827 73.4659 212.857 72.4167 212.168 71.0682C211.486 69.7197 211.145 68.1439 211.145 66.3409C211.145 64.5379 211.486 62.9583 212.168 61.6023C212.857 60.2462 213.827 59.1932 215.077 58.4432C216.327 57.6932 217.804 57.3182 219.509 57.3182C221.213 57.3182 222.69 57.6932 223.94 58.4432C225.19 59.1932 226.156 60.2462 226.838 61.6023C227.527 62.9583 227.872 64.5379 227.872 66.3409C227.872 68.1439 227.527 69.7197 226.838 71.0682C226.156 72.4167 225.19 73.4659 223.94 74.2159C222.69 74.9659 221.213 75.3409 219.509 75.3409ZM219.531 72.0455C220.455 72.0455 221.228 71.7917 221.849 71.2841C222.471 70.7689 222.933 70.0795 223.236 69.2159C223.546 68.3523 223.702 67.3902 223.702 66.3295C223.702 65.2614 223.546 64.2955 223.236 63.4318C222.933 62.5606 222.471 61.8674 221.849 61.3523C221.228 60.8371 220.455 60.5795 219.531 60.5795C218.584 60.5795 217.796 60.8371 217.168 61.3523C216.546 61.8674 216.08 62.5606 215.77 63.4318C215.467 64.2955 215.315 65.2614 215.315 66.3295C215.315 67.3902 215.467 68.3523 215.77 69.2159C216.08 70.0795 216.546 70.7689 217.168 71.2841C217.796 71.7917 218.584 72.0455 219.531 72.0455ZM231.364 75V57.5455H235.295V60.5114H235.5C235.864 59.5114 236.466 58.7311 237.307 58.1705C238.148 57.6023 239.152 57.3182 240.318 57.3182C241.5 57.3182 242.496 57.6061 243.307 58.1818C244.125 58.75 244.701 59.5265 245.034 60.5114H245.216C245.602 59.5417 246.254 58.7689 247.17 58.1932C248.095 57.6098 249.189 57.3182 250.455 57.3182C252.061 57.3182 253.371 57.8258 254.386 58.8409C255.402 59.8561 255.909 61.3371 255.909 63.2841V75H251.784V63.9205C251.784 62.8371 251.496 62.0455 250.92 61.5455C250.345 61.0379 249.64 60.7841 248.807 60.7841C247.814 60.7841 247.038 61.0947 246.477 61.7159C245.924 62.3295 245.648 63.1288 245.648 64.1136V75H241.614V63.75C241.614 62.8485 241.341 62.1288 240.795 61.5909C240.258 61.053 239.553 60.7841 238.682 60.7841C238.091 60.7841 237.553 60.9356 237.068 61.2386C236.583 61.5341 236.197 61.9545 235.909 62.5C235.621 63.0379 235.477 63.6667 235.477 64.3864V75H231.364ZM260.082 75V57.5455H264.014V60.5114H264.219C264.582 59.5114 265.185 58.7311 266.026 58.1705C266.866 57.6023 267.87 57.3182 269.037 57.3182C270.219 57.3182 271.215 57.6061 272.026 58.1818C272.844 58.75 273.42 59.5265 273.753 60.5114H273.935C274.321 59.5417 274.973 58.7689 275.889 58.1932C276.813 57.6098 277.908 57.3182 279.173 57.3182C280.779 57.3182 282.09 57.8258 283.105 58.8409C284.12 59.8561 284.628 61.3371 284.628 63.2841V75H280.503V63.9205C280.503 62.8371 280.215 62.0455 279.639 61.5455C279.063 61.0379 278.359 60.7841 277.526 60.7841C276.533 60.7841 275.757 61.0947 275.196 61.7159C274.643 62.3295 274.366 63.1288 274.366 64.1136V75H270.332V63.75C270.332 62.8485 270.06 62.1288 269.514 61.5909C268.976 61.053 268.272 60.7841 267.401 60.7841C266.81 60.7841 266.272 60.9356 265.787 61.2386C265.302 61.5341 264.916 61.9545 264.628 62.5C264.34 63.0379 264.196 63.6667 264.196 64.3864V75H260.082ZM299.926 67.6591V57.5455H304.04V75H300.051V71.8977H299.869C299.475 72.875 298.828 73.6742 297.926 74.2955C297.032 74.9167 295.93 75.2273 294.619 75.2273C293.475 75.2273 292.464 74.9735 291.585 74.4659C290.714 73.9508 290.032 73.2045 289.54 72.2273C289.047 71.2424 288.801 70.053 288.801 68.6591V57.5455H292.915V68.0227C292.915 69.1288 293.218 70.0076 293.824 70.6591C294.43 71.3106 295.225 71.6364 296.21 71.6364C296.816 71.6364 297.403 71.4886 297.972 71.1932C298.54 70.8977 299.006 70.4583 299.369 69.875C299.741 69.2841 299.926 68.5455 299.926 67.6591ZM312.384 64.7727V75H308.27V57.5455H312.202V60.5114H312.406C312.808 59.5341 313.448 58.7576 314.327 58.1818C315.213 57.6061 316.308 57.3182 317.611 57.3182C318.815 57.3182 319.865 57.5758 320.759 58.0909C321.66 58.6061 322.357 59.3523 322.849 60.3295C323.349 61.3068 323.596 62.4924 323.588 63.8864V75H319.474V64.5227C319.474 63.3561 319.171 62.4432 318.565 61.7841C317.967 61.125 317.137 60.7955 316.077 60.7955C315.357 60.7955 314.717 60.9545 314.156 61.2727C313.603 61.5833 313.168 62.0341 312.849 62.625C312.539 63.2159 312.384 63.9318 312.384 64.7727ZM327.77 75V57.5455H331.884V75H327.77ZM329.838 55.0682C329.187 55.0682 328.626 54.8523 328.156 54.4205C327.687 53.9811 327.452 53.4545 327.452 52.8409C327.452 52.2197 327.687 51.6932 328.156 51.2614C328.626 50.822 329.187 50.6023 329.838 50.6023C330.497 50.6023 331.058 50.822 331.52 51.2614C331.99 51.6932 332.224 52.2197 332.224 52.8409C332.224 53.4545 331.99 53.9811 331.52 54.4205C331.058 54.8523 330.497 55.0682 329.838 55.0682ZM347.761 81.5455V72.25H347.591C347.379 72.6742 347.072 73.125 346.67 73.6023C346.269 74.072 345.739 74.4735 345.08 74.8068C344.42 75.1402 343.591 75.3068 342.591 75.3068C341.22 75.3068 339.992 74.9545 338.909 74.25C337.826 73.5455 336.97 72.5227 336.341 71.1818C335.712 69.8409 335.398 68.2121 335.398 66.2955C335.398 64.3561 335.716 62.7197 336.352 61.3864C336.996 60.0455 337.864 59.0341 338.955 58.3523C340.045 57.6629 341.261 57.3182 342.602 57.3182C343.625 57.3182 344.466 57.4924 345.125 57.8409C345.784 58.1818 346.307 58.5947 346.693 59.0795C347.08 59.5568 347.379 60.0076 347.591 60.4318H347.841V57.5455H351.886V81.5455H347.761ZM343.739 71.9318C344.61 71.9318 345.352 71.697 345.966 71.2273C346.58 70.75 347.045 70.0871 347.364 69.2386C347.682 68.3902 347.841 67.4015 347.841 66.2727C347.841 65.1439 347.682 64.1629 347.364 63.3295C347.053 62.4962 346.591 61.8485 345.977 61.3864C345.371 60.9242 344.625 60.6932 343.739 60.6932C342.822 60.6932 342.057 60.9318 341.443 61.4091C340.83 61.8864 340.367 62.5455 340.057 63.3864C339.746 64.2273 339.591 65.1894 339.591 66.2727C339.591 67.3636 339.746 68.3371 340.057 69.1932C340.375 70.0417 340.841 70.7121 341.455 71.2045C342.076 71.6894 342.837 71.9318 343.739 71.9318ZM367.239 67.6591V57.5455H371.352V75H367.364V71.8977H367.182C366.788 72.875 366.14 73.6742 365.239 74.2955C364.345 74.9167 363.242 75.2273 361.932 75.2273C360.788 75.2273 359.777 74.9735 358.898 74.4659C358.027 73.9508 357.345 73.2045 356.852 72.2273C356.36 71.2424 356.114 70.053 356.114 68.6591V57.5455H360.227V68.0227C360.227 69.1288 360.53 70.0076 361.136 70.6591C361.742 71.3106 362.538 71.6364 363.523 71.6364C364.129 71.6364 364.716 71.4886 365.284 71.1932C365.852 70.8977 366.318 70.4583 366.682 69.875C367.053 69.2841 367.239 68.5455 367.239 67.6591ZM383.31 75.3409C381.56 75.3409 380.048 74.9773 378.776 74.25C377.51 73.5152 376.537 72.4773 375.855 71.1364C375.173 69.7879 374.832 68.2008 374.832 66.375C374.832 64.5795 375.173 63.0038 375.855 61.6477C376.545 60.2841 377.507 59.2235 378.741 58.4659C379.976 57.7008 381.427 57.3182 383.094 57.3182C384.17 57.3182 385.185 57.4924 386.139 57.8409C387.101 58.1818 387.95 58.7121 388.685 59.4318C389.427 60.1515 390.01 61.0682 390.435 62.1818C390.859 63.2879 391.071 64.6061 391.071 66.1364V67.3977H376.764V64.625H387.128C387.12 63.8371 386.95 63.1364 386.616 62.5227C386.283 61.9015 385.817 61.4129 385.219 61.0568C384.628 60.7008 383.938 60.5227 383.151 60.5227C382.31 60.5227 381.571 60.7273 380.935 61.1364C380.298 61.5379 379.802 62.0682 379.446 62.7273C379.098 63.3788 378.92 64.0947 378.912 64.875V67.2955C378.912 68.3106 379.098 69.1818 379.469 69.9091C379.84 70.6288 380.359 71.1818 381.026 71.5682C381.692 71.947 382.473 72.1364 383.366 72.1364C383.965 72.1364 384.507 72.053 384.991 71.8864C385.476 71.7121 385.897 71.4583 386.253 71.125C386.609 70.7917 386.878 70.3788 387.06 69.8864L390.901 70.3182C390.658 71.3333 390.196 72.2197 389.514 72.9773C388.84 73.7273 387.976 74.3106 386.923 74.7273C385.87 75.1364 384.666 75.3409 383.31 75.3409ZM394.551 75V57.5455H398.54V60.4545H398.722C399.04 59.447 399.585 58.6705 400.358 58.125C401.138 57.572 402.028 57.2955 403.028 57.2955C403.256 57.2955 403.509 57.3068 403.79 57.3295C404.078 57.3447 404.316 57.3712 404.506 57.4091V61.1932C404.331 61.1326 404.055 61.0795 403.676 61.0341C403.305 60.9811 402.945 60.9545 402.597 60.9545C401.847 60.9545 401.172 61.1174 400.574 61.4432C399.983 61.7614 399.517 62.2045 399.176 62.7727C398.835 63.3409 398.665 63.9962 398.665 64.7386V75H394.551ZM415.176 81.5455V57.5455H419.222V60.4318H419.46C419.672 60.0076 419.972 59.5568 420.358 59.0795C420.744 58.5947 421.267 58.1818 421.926 57.8409C422.585 57.4924 423.426 57.3182 424.449 57.3182C425.797 57.3182 427.013 57.6629 428.097 58.3523C429.188 59.0341 430.051 60.0455 430.688 61.3864C431.331 62.7197 431.653 64.3561 431.653 66.2955C431.653 68.2121 431.339 69.8409 430.71 71.1818C430.081 72.5227 429.225 73.5455 428.142 74.25C427.059 74.9545 425.831 75.3068 424.46 75.3068C423.46 75.3068 422.631 75.1402 421.972 74.8068C421.313 74.4735 420.782 74.072 420.381 73.6023C419.987 73.125 419.68 72.6742 419.46 72.25H419.29V81.5455H415.176ZM419.21 66.2727C419.21 67.4015 419.369 68.3902 419.688 69.2386C420.013 70.0871 420.479 70.75 421.085 71.2273C421.699 71.697 422.441 71.9318 423.312 71.9318C424.222 71.9318 424.983 71.6894 425.597 71.2045C426.21 70.7121 426.672 70.0417 426.983 69.1932C427.301 68.3371 427.46 67.3636 427.46 66.2727C427.46 65.1894 427.305 64.2273 426.994 63.3864C426.684 62.5455 426.222 61.8864 425.608 61.4091C424.994 60.9318 424.229 60.6932 423.312 60.6932C422.434 60.6932 421.688 60.9242 421.074 61.3864C420.46 61.8485 419.994 62.4962 419.676 63.3295C419.366 64.1629 419.21 65.1439 419.21 66.2727ZM440.199 75.3523C439.093 75.3523 438.097 75.1553 437.21 74.7614C436.331 74.3598 435.634 73.7689 435.119 72.9886C434.612 72.2083 434.358 71.2462 434.358 70.1023C434.358 69.1174 434.54 68.303 434.903 67.6591C435.267 67.0152 435.763 66.5 436.392 66.1136C437.021 65.7273 437.729 65.4356 438.517 65.2386C439.313 65.0341 440.134 64.8864 440.983 64.7955C442.006 64.6894 442.835 64.5947 443.472 64.5114C444.108 64.4205 444.57 64.2841 444.858 64.1023C445.153 63.9129 445.301 63.6212 445.301 63.2273V63.1591C445.301 62.303 445.047 61.6402 444.54 61.1705C444.032 60.7008 443.301 60.4659 442.347 60.4659C441.339 60.4659 440.54 60.6856 439.949 61.125C439.366 61.5644 438.972 62.0833 438.767 62.6818L434.926 62.1364C435.229 61.0758 435.729 60.1894 436.426 59.4773C437.123 58.7576 437.975 58.2197 438.983 57.8636C439.991 57.5 441.104 57.3182 442.324 57.3182C443.165 57.3182 444.002 57.4167 444.835 57.6136C445.669 57.8106 446.43 58.1364 447.119 58.5909C447.809 59.0379 448.362 59.6477 448.778 60.4205C449.203 61.1932 449.415 62.1591 449.415 63.3182V75H445.46V72.6023H445.324C445.074 73.0871 444.722 73.5417 444.267 73.9659C443.82 74.3826 443.256 74.7197 442.574 74.9773C441.9 75.2273 441.108 75.3523 440.199 75.3523ZM441.267 72.3295C442.093 72.3295 442.809 72.1667 443.415 71.8409C444.021 71.5076 444.487 71.0682 444.812 70.5227C445.146 69.9773 445.312 69.3826 445.312 68.7386V66.6818C445.184 66.7879 444.964 66.8864 444.653 66.9773C444.35 67.0682 444.009 67.1477 443.631 67.2159C443.252 67.2841 442.877 67.3447 442.506 67.3977C442.134 67.4508 441.813 67.4962 441.54 67.5341C440.926 67.6174 440.377 67.7538 439.892 67.9432C439.407 68.1326 439.025 68.3977 438.744 68.7386C438.464 69.072 438.324 69.5038 438.324 70.0341C438.324 70.7917 438.6 71.3636 439.153 71.75C439.706 72.1364 440.411 72.3295 441.267 72.3295ZM453.551 75V57.5455H457.54V60.4545H457.722C458.04 59.447 458.585 58.6705 459.358 58.125C460.138 57.572 461.028 57.2955 462.028 57.2955C462.256 57.2955 462.509 57.3068 462.79 57.3295C463.078 57.3447 463.316 57.3712 463.506 57.4091V61.1932C463.331 61.1326 463.055 61.0795 462.676 61.0341C462.305 60.9811 461.945 60.9545 461.597 60.9545C460.847 60.9545 460.172 61.1174 459.574 61.4432C458.983 61.7614 458.517 62.2045 458.176 62.7727C457.835 63.3409 457.665 63.9962 457.665 64.7386V75H453.551ZM482.892 57.5455V60.7273H472.858V57.5455H482.892ZM475.335 53.3636H479.449V69.75C479.449 70.303 479.532 70.7273 479.699 71.0227C479.873 71.3106 480.1 71.5076 480.381 71.6136C480.661 71.7197 480.972 71.7727 481.312 71.7727C481.57 71.7727 481.805 71.7538 482.017 71.7159C482.237 71.678 482.403 71.6439 482.517 71.6136L483.21 74.8295C482.991 74.9053 482.676 74.9886 482.267 75.0795C481.866 75.1705 481.373 75.2235 480.79 75.2386C479.759 75.2689 478.831 75.1136 478.006 74.7727C477.18 74.4242 476.525 73.8864 476.04 73.1591C475.563 72.4318 475.328 71.5227 475.335 70.4318V53.3636ZM493.872 75.3409C492.122 75.3409 490.611 74.9773 489.338 74.25C488.073 73.5152 487.099 72.4773 486.418 71.1364C485.736 69.7879 485.395 68.2008 485.395 66.375C485.395 64.5795 485.736 63.0038 486.418 61.6477C487.107 60.2841 488.069 59.2235 489.304 58.4659C490.539 57.7008 491.99 57.3182 493.656 57.3182C494.732 57.3182 495.747 57.4924 496.702 57.8409C497.664 58.1818 498.512 58.7121 499.247 59.4318C499.99 60.1515 500.573 61.0682 500.997 62.1818C501.421 63.2879 501.634 64.6061 501.634 66.1364V67.3977H487.327V64.625H497.69C497.683 63.8371 497.512 63.1364 497.179 62.5227C496.846 61.9015 496.38 61.4129 495.781 61.0568C495.19 60.7008 494.501 60.5227 493.713 60.5227C492.872 60.5227 492.134 60.7273 491.497 61.1364C490.861 61.5379 490.365 62.0682 490.009 62.7273C489.66 63.3788 489.482 64.0947 489.474 64.875V67.2955C489.474 68.3106 489.66 69.1818 490.031 69.9091C490.402 70.6288 490.921 71.1818 491.588 71.5682C492.255 71.947 493.035 72.1364 493.929 72.1364C494.527 72.1364 495.069 72.053 495.554 71.8864C496.039 71.7121 496.459 71.4583 496.815 71.125C497.171 70.7917 497.44 70.3788 497.622 69.8864L501.463 70.3182C501.221 71.3333 500.759 72.2197 500.077 72.9773C499.402 73.7273 498.539 74.3106 497.486 74.7273C496.433 75.1364 495.228 75.3409 493.872 75.3409ZM491.963 55.25L494.509 50.0568H498.531L495.043 55.25H491.963ZM509.227 51.7273V75H505.114V51.7273H509.227ZM521.185 75.3409C519.435 75.3409 517.923 74.9773 516.651 74.25C515.385 73.5152 514.412 72.4773 513.73 71.1364C513.048 69.7879 512.707 68.2008 512.707 66.375C512.707 64.5795 513.048 63.0038 513.73 61.6477C514.42 60.2841 515.382 59.2235 516.616 58.4659C517.851 57.7008 519.302 57.3182 520.969 57.3182C522.045 57.3182 523.06 57.4924 524.014 57.8409C524.976 58.1818 525.825 58.7121 526.56 59.4318C527.302 60.1515 527.885 61.0682 528.31 62.1818C528.734 63.2879 528.946 64.6061 528.946 66.1364V67.3977H514.639V64.625H525.003C524.995 63.8371 524.825 63.1364 524.491 62.5227C524.158 61.9015 523.692 61.4129 523.094 61.0568C522.503 60.7008 521.813 60.5227 521.026 60.5227C520.185 60.5227 519.446 60.7273 518.81 61.1364C518.173 61.5379 517.677 62.0682 517.321 62.7273C516.973 63.3788 516.795 64.0947 516.787 64.875V67.2955C516.787 68.3106 516.973 69.1818 517.344 69.9091C517.715 70.6288 518.234 71.1818 518.901 71.5682C519.567 71.947 520.348 72.1364 521.241 72.1364C521.84 72.1364 522.382 72.053 522.866 71.8864C523.351 71.7121 523.772 71.4583 524.128 71.125C524.484 70.7917 524.753 70.3788 524.935 69.8864L528.776 70.3182C528.533 71.3333 528.071 72.2197 527.389 72.9773C526.715 73.7273 525.851 74.3106 524.798 74.7273C523.745 75.1364 522.541 75.3409 521.185 75.3409ZM519.276 55.25L521.821 50.0568H525.844L522.355 55.25H519.276ZM532.426 81.5455V57.5455H536.472V60.4318H536.71C536.922 60.0076 537.222 59.5568 537.608 59.0795C537.994 58.5947 538.517 58.1818 539.176 57.8409C539.835 57.4924 540.676 57.3182 541.699 57.3182C543.047 57.3182 544.263 57.6629 545.347 58.3523C546.438 59.0341 547.301 60.0455 547.938 61.3864C548.581 62.7197 548.903 64.3561 548.903 66.2955C548.903 68.2121 548.589 69.8409 547.96 71.1818C547.331 72.5227 546.475 73.5455 545.392 74.25C544.309 74.9545 543.081 75.3068 541.71 75.3068C540.71 75.3068 539.881 75.1402 539.222 74.8068C538.563 74.4735 538.032 74.072 537.631 73.6023C537.237 73.125 536.93 72.6742 536.71 72.25H536.54V81.5455H532.426ZM536.46 66.2727C536.46 67.4015 536.619 68.3902 536.938 69.2386C537.263 70.0871 537.729 70.75 538.335 71.2273C538.949 71.697 539.691 71.9318 540.562 71.9318C541.472 71.9318 542.233 71.6894 542.847 71.2045C543.46 70.7121 543.922 70.0417 544.233 69.1932C544.551 68.3371 544.71 67.3636 544.71 66.2727C544.71 65.1894 544.555 64.2273 544.244 63.3864C543.934 62.5455 543.472 61.8864 542.858 61.4091C542.244 60.9318 541.479 60.6932 540.562 60.6932C539.684 60.6932 538.938 60.9242 538.324 61.3864C537.71 61.8485 537.244 62.4962 536.926 63.3295C536.616 64.1629 536.46 65.1439 536.46 66.2727ZM556.54 64.7727V75H552.426V51.7273H556.449V60.5114H556.653C557.063 59.5265 557.695 58.75 558.551 58.1818C559.415 57.6061 560.513 57.3182 561.847 57.3182C563.059 57.3182 564.116 57.572 565.017 58.0795C565.919 58.5871 566.616 59.3295 567.108 60.3068C567.608 61.2841 567.858 62.4773 567.858 63.8864V75H563.744V64.5227C563.744 63.3485 563.441 62.4356 562.835 61.7841C562.237 61.125 561.396 60.7955 560.312 60.7955C559.585 60.7955 558.934 60.9545 558.358 61.2727C557.79 61.5833 557.343 62.0341 557.017 62.625C556.699 63.2159 556.54 63.9318 556.54 64.7727ZM579.665 75.3409C577.96 75.3409 576.483 74.9659 575.233 74.2159C573.983 73.4659 573.013 72.4167 572.324 71.0682C571.642 69.7197 571.301 68.1439 571.301 66.3409C571.301 64.5379 571.642 62.9583 572.324 61.6023C573.013 60.2462 573.983 59.1932 575.233 58.4432C576.483 57.6932 577.96 57.3182 579.665 57.3182C581.369 57.3182 582.847 57.6932 584.097 58.4432C585.347 59.1932 586.313 60.2462 586.994 61.6023C587.684 62.9583 588.028 64.5379 588.028 66.3409C588.028 68.1439 587.684 69.7197 586.994 71.0682C586.313 72.4167 585.347 73.4659 584.097 74.2159C582.847 74.9659 581.369 75.3409 579.665 75.3409ZM579.688 72.0455C580.612 72.0455 581.384 71.7917 582.006 71.2841C582.627 70.7689 583.089 70.0795 583.392 69.2159C583.703 68.3523 583.858 67.3902 583.858 66.3295C583.858 65.2614 583.703 64.2955 583.392 63.4318C583.089 62.5606 582.627 61.8674 582.006 61.3523C581.384 60.8371 580.612 60.5795 579.688 60.5795C578.741 60.5795 577.953 60.8371 577.324 61.3523C576.703 61.8674 576.237 62.5606 575.926 63.4318C575.623 64.2955 575.472 65.2614 575.472 66.3295C575.472 67.3902 575.623 68.3523 575.926 69.2159C576.237 70.0795 576.703 70.7689 577.324 71.2841C577.953 71.7917 578.741 72.0455 579.688 72.0455ZM595.634 64.7727V75H591.52V57.5455H595.452V60.5114H595.656C596.058 59.5341 596.698 58.7576 597.577 58.1818C598.463 57.6061 599.558 57.3182 600.861 57.3182C602.065 57.3182 603.115 57.5758 604.009 58.0909C604.91 58.6061 605.607 59.3523 606.099 60.3295C606.599 61.3068 606.846 62.4924 606.838 63.8864V75H602.724V64.5227C602.724 63.3561 602.421 62.4432 601.815 61.7841C601.217 61.125 600.387 60.7955 599.327 60.7955C598.607 60.7955 597.967 60.9545 597.406 61.2727C596.853 61.5833 596.418 62.0341 596.099 62.625C595.789 63.2159 595.634 63.9318 595.634 64.7727ZM618.747 75.3409C616.997 75.3409 615.486 74.9773 614.213 74.25C612.948 73.5152 611.974 72.4773 611.293 71.1364C610.611 69.7879 610.27 68.2008 610.27 66.375C610.27 64.5795 610.611 63.0038 611.293 61.6477C611.982 60.2841 612.944 59.2235 614.179 58.4659C615.414 57.7008 616.865 57.3182 618.531 57.3182C619.607 57.3182 620.622 57.4924 621.577 57.8409C622.539 58.1818 623.387 58.7121 624.122 59.4318C624.865 60.1515 625.448 61.0682 625.872 62.1818C626.296 63.2879 626.509 64.6061 626.509 66.1364V67.3977H612.202V64.625H622.565C622.558 63.8371 622.387 63.1364 622.054 62.5227C621.721 61.9015 621.255 61.4129 620.656 61.0568C620.065 60.7008 619.376 60.5227 618.588 60.5227C617.747 60.5227 617.009 60.7273 616.372 61.1364C615.736 61.5379 615.24 62.0682 614.884 62.7273C614.535 63.3788 614.357 64.0947 614.349 64.875V67.2955C614.349 68.3106 614.535 69.1818 614.906 69.9091C615.277 70.6288 615.796 71.1818 616.463 71.5682C617.13 71.947 617.91 72.1364 618.804 72.1364C619.402 72.1364 619.944 72.053 620.429 71.8864C620.914 71.7121 621.334 71.4583 621.69 71.125C622.046 70.7917 622.315 70.3788 622.497 69.8864L626.338 70.3182C626.096 71.3333 625.634 72.2197 624.952 72.9773C624.277 73.7273 623.414 74.3106 622.361 74.7273C621.308 75.1364 620.103 75.3409 618.747 75.3409Z" fill="black"/>
<path d="M752.292 92.584C744.789 92.584 737.591 89.6025 732.286 84.298C726.981 78.9932 724 71.7952 724 64.292C724 56.7888 726.982 49.5913 732.286 44.286C737.591 38.9812 744.789 36 752.292 36C759.795 36 766.993 38.9815 772.298 44.286C777.603 49.5907 780.584 56.7888 780.584 64.292C780.576 71.7924 777.592 78.985 772.287 84.2869C766.985 89.5916 759.792 92.5756 752.292 92.584ZM752.292 40.3526C745.943 40.3526 739.855 42.8744 735.363 47.3628C730.874 51.8541 728.353 57.9421 728.353 64.292C728.353 70.6419 730.874 76.7293 735.363 81.2212C739.854 85.7099 745.942 88.2314 752.292 88.2314C758.642 88.2314 764.729 85.7096 769.221 81.2212C773.71 76.7299 776.231 70.6419 776.231 64.292C776.223 57.9453 773.699 51.8595 769.213 47.3711C764.724 42.8852 758.638 40.361 752.292 40.3526Z" fill="black"/>
<path d="M754.659 77.6166L751.623 74.499L761.764 64.6349L751.894 54.4937L755.017 51.4577L767.917 64.7168L754.659 77.6166Z" fill="black"/>
<path d="M737.602 66.4307L737.607 62.0781L764.811 62.1161L764.805 66.4688L737.602 66.4307Z" fill="black"/>
<path d="M79.5625 104.131H114.437C118.987 104.131 122.678 100.45 122.689 95.9008V55.4007C122.689 54.3637 121.848 53.5234 120.811 53.5234C119.778 53.5234 118.938 54.3637 118.938 55.4007V86.3733H75.0626V28.6428C75.0731 26.1643 77.0841 24.1604 79.5626 24.1604H114.438C116.916 24.1604 118.927 26.1643 118.938 28.6428V34.4366C118.938 35.4737 119.778 36.3104 120.811 36.3104C121.848 36.3104 122.689 35.4737 122.689 34.4366V28.6428C122.678 24.0936 118.987 20.4128 114.437 20.4128H79.5625C75.0132 20.4128 71.3219 24.0936 71.3113 28.6428V95.8998C71.3218 100.449 75.0132 104.131 79.5625 104.131ZM118.937 90.125V95.75C118.927 98.2285 116.916 100.232 114.437 100.232H79.5625C77.084 100.232 75.073 98.2285 75.0625 95.75V90.125H118.937Z" fill="black"/>
<path d="M120.811 40.5125C119.778 40.5125 118.938 41.3527 118.938 42.3863V47.7687C118.938 48.8058 119.778 49.6425 120.811 49.6425C121.848 49.6425 122.689 48.8058 122.689 47.7687V42.3863C122.689 41.8906 122.488 41.4125 122.137 41.0609C121.785 40.7093 121.311 40.5125 120.811 40.5125Z" fill="black"/>
<path d="M99.907 29.9762C100.941 29.9762 101.781 29.136 101.781 28.0989C101.781 27.0653 100.941 26.2251 99.907 26.2251H94.0922C93.0586 26.2251 92.2184 27.0653 92.2184 28.0989C92.2184 29.136 93.0586 29.9762 94.0922 29.9762H99.907Z" fill="black"/>
<path d="M97 99.6488C98.7754 99.6488 100.378 98.5801 101.057 96.9383C101.732 95.2965 101.356 93.4051 100.097 92.1535C98.8387 90.8985 96.9472 90.5293 95.309 91.2148C93.6707 91.9004 92.6054 93.5035 92.6125 95.2824C92.623 97.6976 94.5847 99.6488 97 99.6488ZM97 94.6426C97.2566 94.6426 97.4886 94.8008 97.5906 95.0363C97.689 95.2754 97.6328 95.5496 97.45 95.7324C97.2671 95.9152 96.9929 95.968 96.7574 95.8695C96.5183 95.7711 96.3636 95.539 96.3636 95.2824C96.3636 95.1137 96.4304 94.9484 96.55 94.8289C96.6695 94.7094 96.8312 94.6426 97 94.6426Z" fill="black"/>
<path d="M77.8569 56.7125C77.8816 57.8586 78.0116 59.0012 78.2507 60.1262C79.1824 65.1395 82.0792 69.5726 86.2944 72.4418C90.5132 75.3105 95.7021 76.3758 100.709 75.402C105.715 74.4247 110.124 71.4926 112.957 67.2492C114.356 65.1293 115.305 62.7422 115.748 60.2391C115.987 59.0789 116.107 57.8976 116.107 56.7129C116.107 49.8749 112.458 43.554 106.534 40.1331C100.61 36.7122 93.3118 36.7123 87.3907 40.1331C81.4669 43.5538 77.8174 49.8747 77.8174 56.7129L77.8569 56.7125ZM96.9999 41.3738C101.082 41.3738 104.998 42.998 107.885 45.8843C110.771 48.7706 112.395 52.6871 112.395 56.7689C112.399 57.7182 112.304 58.6674 112.114 59.599C111.741 61.6099 110.964 63.5259 109.825 65.224C106.992 69.5482 102.168 72.1497 97.0001 72.1497C91.8321 72.1497 87.0083 69.5482 84.1751 65.224C83.0291 63.5259 82.2451 61.6134 81.8689 59.599C81.6896 58.6849 81.6017 57.7568 81.6052 56.8252C81.5982 52.733 83.2119 48.806 86.1017 45.9091C88.988 43.0122 92.9081 41.3809 96.9999 41.3738Z" fill="black"/>
<path d="M91.0195 53.6192C91.5152 53.6192 91.9933 53.4223 92.3449 53.0708C92.6965 52.7192 92.8933 52.2411 92.8933 51.7453C92.8722 50.2196 93.6949 48.8063 95.0343 48.0715C96.3703 47.3403 98.0051 47.4036 99.2813 48.2403C100.554 49.077 101.264 50.55 101.127 52.0688C100.986 53.5875 100.02 54.9059 98.6133 55.493C96.4723 56.3719 95.0906 58.4708 95.1258 60.7805V62.5067C95.1258 63.5438 95.9625 64.3805 96.9996 64.3805C98.0367 64.3805 98.8734 63.5438 98.8734 62.5067V60.7805C98.8242 59.9579 99.3164 59.195 100.093 58.9067C103.609 57.3845 105.529 53.5595 104.65 49.8329C103.978 46.9466 101.725 44.6931 98.8383 44.0181C96.4828 43.4662 94.0043 44.0181 92.1058 45.5193C90.232 47.0099 89.1421 49.274 89.1421 51.6681C89.1246 52.1779 89.3109 52.6771 89.666 53.0427C90.0175 53.4118 90.5062 53.6192 91.0195 53.6192Z" fill="black"/>
<path d="M96.8137 65.5262L96.4586 65.6387H96.4551C95.4216 65.7864 94.7043 66.7497 94.852 67.7832C95.0032 68.8203 95.963 69.5375 97.0001 69.3863C97.1794 69.4179 97.3622 69.4179 97.545 69.3863L97.9001 69.2738C98.895 68.975 99.4575 67.9238 99.1551 66.9324C98.8563 65.9374 97.8051 65.3749 96.8137 65.6738L96.8137 65.5262Z" fill="black"/>
</svg>
