<svg width="325" height="185" viewBox="0 0 325 185" fill="none" xmlns="http://www.w3.org/2000/svg">
<rect width="325" height="185" rx="24" fill="#00489D"/>
<path d="M237.167 39.75C235.5 34.8 230.917 31.5 225.5 31.5C218.417 31.5 213 36.8625 213 43.875C213 50.8875 218.417 56.25 225.5 56.25C230.917 56.25 235.5 52.95 237.167 48H242.167V56.25H250.5V48H258.833V39.75H237.167ZM225.5 48C223 48 221.333 46.35 221.333 43.875C221.333 41.4 223 39.75 225.5 39.75C228 39.75 229.667 41.4 229.667 43.875C229.667 46.35 228 48 225.5 48ZM279.667 15C270.5 15 263 22.425 263 31.5C263 40.575 270.5 48 279.667 48C288.833 48 296.333 40.575 296.333 31.5C296.333 22.425 288.833 15 279.667 15ZM279.667 40.1625C274.667 40.1625 270.917 36.45 270.917 31.5C270.917 26.55 274.667 22.8375 279.667 22.8375C284.667 22.8375 288.417 26.55 288.417 31.5C288.417 36.45 284.667 40.1625 279.667 40.1625ZM279.667 52.125C268.417 52.125 246.333 57.4875 246.333 68.625V81H313V68.625C313 57.4875 290.917 52.125 279.667 52.125ZM305.083 73.1625H254.25V68.625C254.25 66.15 267.167 59.9625 279.667 59.9625C292.167 59.9625 305.083 66.15 305.083 68.625V73.1625Z" fill="#2972C7"/>
<path d="M27.9446 167H22.8821L32.0994 140.818H37.9545L47.1847 167H42.1222L35.1293 146.188H34.9247L27.9446 167ZM28.1108 156.734H41.9176V160.544H28.1108V156.734ZM62.9442 158.741V147.364H67.5721V167H63.0849V163.51H62.8803C62.4371 164.609 61.7085 165.509 60.6942 166.207C59.6886 166.906 58.4485 167.256 56.9741 167.256C55.6871 167.256 54.5494 166.97 53.5607 166.399C52.5806 165.82 51.8136 164.98 51.2596 163.881C50.7056 162.773 50.4286 161.435 50.4286 159.866V147.364H55.0565V159.151C55.0565 160.395 55.3974 161.384 56.0792 162.116C56.761 162.849 57.6559 163.216 58.7639 163.216C59.4457 163.216 60.1062 163.05 60.7454 162.717C61.3846 162.385 61.9087 161.891 62.3178 161.234C62.7354 160.57 62.9442 159.739 62.9442 158.741ZM82.1364 147.364V150.943H70.848V147.364H82.1364ZM73.6349 142.659H78.2628V161.094C78.2628 161.716 78.3565 162.193 78.544 162.526C78.7401 162.849 78.9957 163.071 79.3111 163.19C79.6264 163.31 79.9759 163.369 80.3594 163.369C80.6491 163.369 80.9134 163.348 81.152 163.305C81.3991 163.263 81.5866 163.224 81.7145 163.19L82.4943 166.808C82.2472 166.893 81.8935 166.987 81.4332 167.089C80.9815 167.192 80.4276 167.251 79.7713 167.268C78.6122 167.303 77.5682 167.128 76.6392 166.744C75.7102 166.352 74.973 165.747 74.4276 164.929C73.8906 164.111 73.6264 163.088 73.6349 161.861V142.659ZM91.0565 155.494V167H86.4286V140.818H90.9542V150.7H91.1843C91.6445 149.592 92.3562 148.719 93.3192 148.08C94.2908 147.432 95.5266 147.108 97.0266 147.108C98.3903 147.108 99.5792 147.393 100.593 147.964C101.608 148.536 102.392 149.371 102.946 150.47C103.508 151.57 103.789 152.912 103.789 154.497V167H99.1616V155.213C99.1616 153.892 98.8207 152.865 98.1389 152.132C97.4656 151.391 96.5195 151.02 95.3008 151.02C94.4826 151.02 93.7496 151.199 93.1019 151.557C92.4627 151.906 91.9599 152.413 91.5934 153.078C91.2354 153.743 91.0565 154.548 91.0565 155.494ZM117.2 167.384C115.231 167.384 113.531 166.974 112.099 166.156C110.676 165.33 109.581 164.162 108.814 162.653C108.047 161.136 107.663 159.351 107.663 157.297C107.663 155.277 108.047 153.504 108.814 151.979C109.589 150.445 110.672 149.251 112.061 148.399C113.45 147.538 115.082 147.108 116.957 147.108C118.167 147.108 119.309 147.304 120.383 147.696C121.466 148.08 122.42 148.676 123.247 149.486C124.082 150.295 124.738 151.327 125.216 152.58C125.693 153.824 125.931 155.307 125.931 157.028V158.447H109.836V155.328H121.495C121.487 154.442 121.295 153.653 120.92 152.963C120.545 152.264 120.021 151.714 119.348 151.314C118.683 150.913 117.907 150.713 117.021 150.713C116.075 150.713 115.244 150.943 114.528 151.403C113.812 151.855 113.254 152.452 112.853 153.193C112.461 153.926 112.261 154.732 112.252 155.609V158.332C112.252 159.474 112.461 160.455 112.879 161.273C113.297 162.082 113.88 162.705 114.63 163.139C115.38 163.565 116.258 163.778 117.264 163.778C117.937 163.778 118.547 163.685 119.092 163.497C119.637 163.301 120.11 163.016 120.511 162.641C120.912 162.266 121.214 161.801 121.419 161.247L125.74 161.733C125.467 162.875 124.947 163.872 124.18 164.724C123.422 165.568 122.45 166.224 121.265 166.693C120.081 167.153 118.725 167.384 117.2 167.384ZM134.474 155.494V167H129.847V147.364H134.27V150.7H134.5C134.952 149.601 135.672 148.727 136.661 148.08C137.658 147.432 138.889 147.108 140.355 147.108C141.71 147.108 142.891 147.398 143.896 147.977C144.911 148.557 145.695 149.396 146.249 150.496C146.811 151.595 147.088 152.929 147.08 154.497V167H142.452V155.213C142.452 153.901 142.111 152.874 141.429 152.132C140.756 151.391 139.822 151.02 138.629 151.02C137.82 151.02 137.099 151.199 136.469 151.557C135.847 151.906 135.357 152.413 134.999 153.078C134.649 153.743 134.474 154.548 134.474 155.494ZM161.589 147.364V150.943H150.301V147.364H161.589ZM153.088 142.659H157.716V161.094C157.716 161.716 157.81 162.193 157.997 162.526C158.193 162.849 158.449 163.071 158.764 163.19C159.08 163.31 159.429 163.369 159.812 163.369C160.102 163.369 160.366 163.348 160.605 163.305C160.852 163.263 161.04 163.224 161.168 163.19L161.947 166.808C161.7 166.893 161.347 166.987 160.886 167.089C160.435 167.192 159.881 167.251 159.224 167.268C158.065 167.303 157.021 167.128 156.092 166.744C155.163 166.352 154.426 165.747 153.881 164.929C153.344 164.111 153.08 163.088 153.088 161.861V142.659ZM165.46 167V147.364H170.088V167H165.46ZM167.787 144.577C167.054 144.577 166.423 144.334 165.895 143.848C165.366 143.354 165.102 142.761 165.102 142.071C165.102 141.372 165.366 140.78 165.895 140.294C166.423 139.8 167.054 139.553 167.787 139.553C168.528 139.553 169.159 139.8 169.679 140.294C170.207 140.78 170.471 141.372 170.471 142.071C170.471 142.761 170.207 143.354 169.679 143.848C169.159 144.334 168.528 144.577 167.787 144.577ZM184.793 147.364V150.943H173.185V147.364H184.793ZM176.087 167V145.51C176.087 144.189 176.359 143.089 176.905 142.212C177.459 141.334 178.2 140.678 179.129 140.243C180.058 139.808 181.089 139.591 182.223 139.591C183.024 139.591 183.736 139.655 184.358 139.783C184.98 139.911 185.44 140.026 185.739 140.128L184.818 143.707C184.622 143.648 184.375 143.588 184.077 143.528C183.778 143.46 183.446 143.426 183.08 143.426C182.219 143.426 181.609 143.635 181.251 144.053C180.902 144.462 180.727 145.05 180.727 145.817V167H176.087ZM188.417 167V147.364H193.045V167H188.417ZM190.744 144.577C190.011 144.577 189.38 144.334 188.852 143.848C188.323 143.354 188.059 142.761 188.059 142.071C188.059 141.372 188.323 140.78 188.852 140.294C189.38 139.8 190.011 139.553 190.744 139.553C191.485 139.553 192.116 139.8 192.636 140.294C193.164 140.78 193.428 141.372 193.428 142.071C193.428 142.761 193.164 143.354 192.636 143.848C192.116 144.334 191.485 144.577 190.744 144.577ZM206.369 167.384C204.409 167.384 202.725 166.953 201.319 166.092C199.922 165.232 198.843 164.043 198.085 162.526C197.335 161 196.96 159.244 196.96 157.259C196.96 155.264 197.343 153.504 198.11 151.979C198.877 150.445 199.96 149.251 201.358 148.399C202.764 147.538 204.426 147.108 206.343 147.108C207.937 147.108 209.348 147.402 210.575 147.99C211.811 148.57 212.795 149.392 213.528 150.457C214.261 151.514 214.679 152.75 214.781 154.165H210.358C210.179 153.219 209.752 152.43 209.079 151.8C208.414 151.161 207.524 150.841 206.407 150.841C205.461 150.841 204.63 151.097 203.914 151.608C203.199 152.111 202.64 152.835 202.24 153.781C201.848 154.727 201.652 155.861 201.652 157.182C201.652 158.52 201.848 159.67 202.24 160.634C202.632 161.588 203.181 162.325 203.889 162.845C204.605 163.357 205.444 163.612 206.407 163.612C207.089 163.612 207.699 163.484 208.235 163.229C208.781 162.964 209.237 162.585 209.603 162.091C209.97 161.597 210.221 160.996 210.358 160.288H214.781C214.67 161.678 214.261 162.909 213.554 163.983C212.846 165.048 211.883 165.884 210.664 166.489C209.446 167.085 208.014 167.384 206.369 167.384ZM224.232 167.396C222.987 167.396 221.866 167.175 220.869 166.732C219.881 166.28 219.097 165.615 218.517 164.737C217.946 163.859 217.661 162.777 217.661 161.49C217.661 160.382 217.865 159.466 218.274 158.741C218.683 158.017 219.241 157.438 219.949 157.003C220.656 156.568 221.453 156.24 222.339 156.018C223.234 155.788 224.159 155.622 225.114 155.52C226.264 155.401 227.197 155.294 227.913 155.2C228.629 155.098 229.149 154.945 229.473 154.74C229.805 154.527 229.972 154.199 229.972 153.756V153.679C229.972 152.716 229.686 151.97 229.115 151.442C228.544 150.913 227.722 150.649 226.648 150.649C225.514 150.649 224.615 150.896 223.95 151.391C223.294 151.885 222.851 152.469 222.621 153.142L218.3 152.528C218.641 151.335 219.203 150.338 219.987 149.537C220.771 148.727 221.73 148.122 222.864 147.722C223.997 147.312 225.25 147.108 226.622 147.108C227.568 147.108 228.51 147.219 229.447 147.44C230.385 147.662 231.241 148.028 232.017 148.54C232.793 149.043 233.415 149.729 233.884 150.598C234.361 151.467 234.599 152.554 234.599 153.858V167H230.151V164.303H229.997C229.716 164.848 229.32 165.359 228.808 165.837C228.305 166.305 227.67 166.685 226.903 166.974C226.145 167.256 225.254 167.396 224.232 167.396ZM225.433 163.996C226.362 163.996 227.168 163.812 227.849 163.446C228.531 163.071 229.055 162.577 229.422 161.963C229.797 161.349 229.984 160.68 229.984 159.956V157.642C229.839 157.761 229.592 157.872 229.243 157.974C228.902 158.077 228.518 158.166 228.092 158.243C227.666 158.32 227.244 158.388 226.827 158.447C226.409 158.507 226.047 158.558 225.74 158.601C225.05 158.695 224.432 158.848 223.886 159.061C223.341 159.274 222.911 159.572 222.595 159.956C222.28 160.331 222.122 160.817 222.122 161.413C222.122 162.266 222.433 162.909 223.055 163.344C223.678 163.778 224.47 163.996 225.433 163.996ZM249.058 147.364V150.943H237.77V147.364H249.058ZM240.557 142.659H245.185V161.094C245.185 161.716 245.278 162.193 245.466 162.526C245.662 162.849 245.918 163.071 246.233 163.19C246.548 163.31 246.898 163.369 247.281 163.369C247.571 163.369 247.835 163.348 248.074 163.305C248.321 163.263 248.509 163.224 248.636 163.19L249.416 166.808C249.169 166.893 248.815 166.987 248.355 167.089C247.903 167.192 247.349 167.251 246.693 167.268C245.534 167.303 244.49 167.128 243.561 166.744C242.632 166.352 241.895 165.747 241.349 164.929C240.813 164.111 240.548 163.088 240.557 161.861V142.659ZM252.929 167V147.364H257.556V167H252.929ZM255.255 144.577C254.522 144.577 253.892 144.334 253.363 143.848C252.835 143.354 252.571 142.761 252.571 142.071C252.571 141.372 252.835 140.78 253.363 140.294C253.892 139.8 254.522 139.553 255.255 139.553C255.997 139.553 256.627 139.8 257.147 140.294C257.676 140.78 257.94 141.372 257.94 142.071C257.94 142.761 257.676 143.354 257.147 143.848C256.627 144.334 255.997 144.577 255.255 144.577ZM270.881 167.384C268.963 167.384 267.301 166.962 265.895 166.118C264.489 165.274 263.398 164.094 262.622 162.577C261.855 161.06 261.472 159.287 261.472 157.259C261.472 155.23 261.855 153.453 262.622 151.928C263.398 150.402 264.489 149.217 265.895 148.374C267.301 147.53 268.963 147.108 270.881 147.108C272.798 147.108 274.46 147.53 275.866 148.374C277.273 149.217 278.359 150.402 279.126 151.928C279.902 153.453 280.29 155.23 280.29 157.259C280.29 159.287 279.902 161.06 279.126 162.577C278.359 164.094 277.273 165.274 275.866 166.118C274.46 166.962 272.798 167.384 270.881 167.384ZM270.906 163.676C271.946 163.676 272.815 163.391 273.514 162.82C274.213 162.24 274.733 161.464 275.074 160.493C275.423 159.521 275.598 158.439 275.598 157.246C275.598 156.044 275.423 154.957 275.074 153.986C274.733 153.006 274.213 152.226 273.514 151.646C272.815 151.067 271.946 150.777 270.906 150.777C269.841 150.777 268.955 151.067 268.247 151.646C267.548 152.226 267.024 153.006 266.675 153.986C266.334 154.957 266.163 156.044 266.163 157.246C266.163 158.439 266.334 159.521 266.675 160.493C267.024 161.464 267.548 162.24 268.247 162.82C268.955 163.391 269.841 163.676 270.906 163.676ZM288.846 155.494V167H284.218V147.364H288.641V150.7H288.871C289.323 149.601 290.043 148.727 291.032 148.08C292.029 147.432 293.26 147.108 294.726 147.108C296.081 147.108 297.262 147.398 298.267 147.977C299.282 148.557 300.066 149.396 300.62 150.496C301.182 151.595 301.459 152.929 301.451 154.497V167H296.823V155.213C296.823 153.901 296.482 152.874 295.8 152.132C295.127 151.391 294.194 151.02 293 151.02C292.191 151.02 291.471 151.199 290.84 151.557C290.218 151.906 289.728 152.413 289.37 153.078C289.02 153.743 288.846 154.548 288.846 155.494Z" fill="white"/>
</svg>
